<svg width="1000" height="667" viewBox="0 0 1000 667" fill="none" xmlns="http://www.w3.org/2000/svg">
<g clip-path="url(#clip0_17_461)">
<rect width="1000" height="667" fill="#EFEFEF"/>
<path d="M310 98C151.2 102 116.167 229.667 118.5 293C105.483 370 95 377.5 64.5 445C34 512.5 79.5 597.5 136.5 615.5C193.5 633.5 220.5 562 310 554.5C399.5 547 538 626 604.5 639C671 652 914 669.5 950 542C986 414.5 987 293 950 168.5C913 44 808.5 29.5 719 26.5C629.5 23.5 508.5 93 310 98Z" fill="#E5E0FC"/>
<path d="M99 207C51 325 119 363 138 398C220 528 692 561 770 541C848 521 1061 262 843 135C780 98.2982 644 135 434 52C371.614 27.3427 147 89 99 207Z" stroke="#AA96F3" stroke-width="3" stroke-dasharray="10 10"/>
<path d="M765.427 489.127H732.201C726.015 489.127 721 484.111 721 477.925V433H776.628V477.925C776.628 484.111 771.615 489.127 765.427 489.127Z" fill="black" fill-opacity="0.09"/>
<path d="M887.932 335.513H498V90H887.932V335.513Z" fill="black" fill-opacity="0.04"/>
<path d="M873.06 322.164C873.06 324.097 871.493 325.664 869.56 325.664H483.628C481.695 325.664 480.128 324.097 480.128 322.164V80.6508C480.128 78.7178 481.695 77.1508 483.628 77.1508H869.56C871.493 77.1508 873.06 78.7177 873.06 80.6508V322.164Z" fill="#B3A7D1" stroke="#6846A9" stroke-width="3"/>
<mask id="mask0_17_461" style="mask-type:luminance" maskUnits="userSpaceOnUse" x="128" y="78" width="744" height="265">
<path d="M128.44 78.6508H871.56V342.857H128.44V78.6508Z" fill="white"/>
</mask>
<g mask="url(#mask0_17_461)">
<g opacity="0.860001">
<mask id="mask1_17_461" style="mask-type:luminance" maskUnits="userSpaceOnUse" x="520" y="114" width="126" height="165">
<path d="M520.139 114.756H645.303V278.432H520.139V114.756Z" fill="white"/>
</mask>
<g mask="url(#mask1_17_461)">
<g opacity="0.320007">
<path d="M645.303 278.432H520.139V114.756H645.303V278.432Z" fill="#787485"/>
</g>
</g>
<path d="M775.668 243.537H720.307L719 191H774.361L775.668 243.537Z" fill="black" fill-opacity="0.04"/>
<path d="M770.247 235.441C770.282 236.846 769.153 238.003 767.748 238.003H714.387C713.031 238.003 711.922 236.921 711.888 235.565L710.631 185.028C710.596 183.623 711.725 182.466 713.13 182.466H766.491C767.847 182.466 768.956 183.548 768.99 184.904L770.247 235.441Z" fill="white" stroke="#6846A9" stroke-width="3"/>
<path d="M836.361 175.768H781V118H836.361V175.768Z" fill="black" fill-opacity="0.04"/>
<path d="M755.728 188.984C755.728 190.365 754.609 191.484 753.228 191.484H728.752C727.371 191.484 726.252 190.365 726.252 188.984V176.541C726.252 175.161 727.371 174.041 728.752 174.041H753.228C754.609 174.041 755.728 175.161 755.728 176.541V188.984Z" fill="#FFCE34" stroke="#6846A9" stroke-width="3"/>
<path d="M831.548 168.524C831.548 169.905 830.429 171.024 829.048 171.024H775.687C774.306 171.024 773.187 169.905 773.187 168.524V112.756C773.187 111.375 774.306 110.256 775.687 110.256H829.048C830.429 110.256 831.548 111.375 831.548 112.756V168.524Z" fill="white" stroke="#6846A9" stroke-width="3"/>
<path d="M815.901 116.773C815.901 118.154 814.782 119.273 813.401 119.273H788.925C787.545 119.273 786.425 118.154 786.425 116.773V104.331C786.425 102.95 787.545 101.831 788.925 101.831H813.401C814.782 101.831 815.901 102.95 815.901 104.331V116.773Z" fill="#FFCE34" stroke="#6846A9" stroke-width="3"/>
<mask id="mask2_17_461" style="mask-type:luminance" maskUnits="userSpaceOnUse" x="539" y="143" width="88" height="100">
<path d="M539.992 143.033H626.652V242.932H539.992V143.033Z" fill="white"/>
</mask>
<g mask="url(#mask2_17_461)">
<g opacity="0.600006">
<mask id="mask3_17_461" style="mask-type:luminance" maskUnits="userSpaceOnUse" x="539" y="143" width="88" height="4">
<path d="M539.992 143.033H626.652V146.653H539.992V143.033Z" fill="white"/>
</mask>
<g mask="url(#mask3_17_461)">
<path d="M541.802 144.843H624.843" stroke="#6644A8" stroke-width="3.61867" stroke-miterlimit="10" stroke-linecap="round"/>
</g>
<mask id="mask4_17_461" style="mask-type:luminance" maskUnits="userSpaceOnUse" x="539" y="163" width="88" height="5">
<path d="M539.992 163.493H626.652V167.112H539.992V163.493Z" fill="white"/>
</mask>
<g mask="url(#mask4_17_461)">
<path d="M541.802 165.303H624.843" stroke="#6644A8" stroke-width="3.61867" stroke-miterlimit="10" stroke-linecap="round"/>
</g>
<mask id="mask5_17_461" style="mask-type:luminance" maskUnits="userSpaceOnUse" x="572" y="205" width="55" height="5">
<path d="M572.487 205.616H626.652V209.235H572.487V205.616Z" fill="white"/>
</mask>
<g mask="url(#mask5_17_461)">
<path d="M574.296 207.425H624.843" stroke="#6644A8" stroke-width="3.61867" stroke-miterlimit="10" stroke-linecap="round"/>
</g>
<mask id="mask6_17_461" style="mask-type:luminance" maskUnits="userSpaceOnUse" x="572" y="222" width="55" height="5">
<path d="M572.487 222.464H626.652V226.084H572.487V222.464Z" fill="white"/>
</mask>
<g mask="url(#mask6_17_461)">
<path d="M574.296 224.274H624.843" stroke="#6644A8" stroke-width="3.61867" stroke-miterlimit="10" stroke-linecap="round"/>
</g>
<mask id="mask7_17_461" style="mask-type:luminance" maskUnits="userSpaceOnUse" x="572" y="239" width="55" height="4">
<path d="M572.487 239.313H626.652V242.932H572.487V239.313Z" fill="white"/>
</mask>
<g mask="url(#mask7_17_461)">
<path d="M574.296 241.123H624.843" stroke="#6644A8" stroke-width="3.61867" stroke-miterlimit="10" stroke-linecap="round"/>
</g>
</g>
</g>
</g>
</g>
<path d="M199.459 280.683C199.459 274.071 194.099 268.711 187.487 268.711C180.875 268.711 175.517 274.071 175.517 280.683C175.517 287.295 180.875 292.655 187.487 292.655C194.099 292.655 199.459 287.295 199.459 280.683Z" fill="#AA96F3" stroke="#24173F" stroke-opacity="0.28" stroke-width="3" stroke-miterlimit="10"/>
<path d="M883.315 374.399C883.315 367.788 877.955 362.427 871.343 362.427C864.732 362.427 859.372 367.788 859.372 374.399C859.372 381.011 864.732 386.371 871.343 386.371C877.955 386.371 883.315 381.011 883.315 374.399Z" fill="#AA96F3" stroke="#24173F" stroke-opacity="0.28" stroke-width="3" stroke-miterlimit="10"/>
<path d="M265.08 559.131C265.08 552.519 259.72 547.159 253.108 547.159C246.498 547.159 241.138 552.519 241.138 559.131C241.138 565.743 246.498 571.103 253.108 571.103C259.72 571.103 265.08 565.743 265.08 559.131Z" fill="#AA96F3" stroke="#24173F" stroke-opacity="0.28" stroke-width="3" stroke-miterlimit="10"/>
<path d="M385.319 301.24C385.319 297.851 382.571 295.104 379.183 295.104C375.794 295.104 373.046 297.851 373.046 301.24C373.046 304.629 375.794 307.377 379.183 307.377C382.571 307.377 385.319 304.629 385.319 301.24Z" fill="#AA96F3"/>
<path d="M383.819 301.24C383.819 298.679 381.743 296.604 379.183 296.604C376.622 296.604 374.546 298.68 374.546 301.24C374.546 303.801 376.622 305.877 379.183 305.877C381.743 305.877 383.819 303.801 383.819 301.24Z" stroke="#24173F" stroke-opacity="0.28" stroke-width="3"/>
<path d="M466.67 149.158C466.67 145.725 463.887 142.942 460.453 142.942C457.019 142.942 454.237 145.725 454.237 149.158C454.237 152.591 457.019 155.375 460.453 155.375C463.887 155.375 466.67 152.591 466.67 149.158Z" fill="#AA96F3"/>
<path d="M465.17 149.158C465.17 146.553 463.059 144.442 460.453 144.442C457.848 144.442 455.737 146.553 455.737 149.158C455.737 151.763 457.848 153.875 460.453 153.875C463.059 153.875 465.17 151.763 465.17 149.158Z" stroke="#24173F" stroke-opacity="0.28" stroke-width="3"/>
<path d="M231.665 597.866C231.665 593.513 228.136 589.984 223.782 589.984C219.428 589.984 215.898 593.513 215.898 597.866C215.898 602.221 219.428 605.75 223.782 605.75C228.136 605.75 231.665 602.221 231.665 597.866Z" fill="#AA96F3"/>
<path d="M230.165 597.866C230.165 594.341 227.307 591.484 223.782 591.484C220.256 591.484 217.398 594.342 217.398 597.866C217.398 601.393 220.256 604.25 223.782 604.25C227.307 604.25 230.165 601.393 230.165 597.866Z" stroke="#24173F" stroke-opacity="0.28" stroke-width="3"/>
<path d="M755.088 578.359C755.088 574.004 751.559 570.475 747.205 570.475C742.851 570.475 739.321 574.004 739.321 578.359C739.321 582.712 742.851 586.241 747.205 586.241C751.559 586.241 755.088 582.712 755.088 578.359Z" fill="#AA96F3"/>
<path d="M753.588 578.359C753.588 574.832 750.73 571.975 747.205 571.975C743.679 571.975 740.821 574.832 740.821 578.359C740.821 581.883 743.679 584.741 747.205 584.741C750.73 584.741 753.588 581.884 753.588 578.359Z" stroke="#24173F" stroke-opacity="0.28" stroke-width="3"/>
<path d="M720.17 637.167C720.17 630.394 714.678 624.902 707.905 624.902C701.132 624.902 695.641 630.394 695.641 637.167C695.641 643.94 701.132 649.432 707.905 649.432C714.678 649.432 720.17 643.94 720.17 637.167Z" fill="#AA96F3" stroke="#24173F" stroke-opacity="0.28" stroke-width="3" stroke-miterlimit="10"/>
<path d="M351.622 104.82C351.622 101.43 348.874 98.6822 345.485 98.6822C342.097 98.6822 339.349 101.43 339.349 104.82C339.349 108.209 342.097 110.957 345.485 110.957C348.874 110.957 351.622 108.209 351.622 104.82Z" fill="#AA96F3"/>
<path d="M350.122 104.82C350.122 102.259 348.045 100.182 345.485 100.182C342.925 100.182 340.849 102.258 340.849 104.82C340.849 107.381 342.925 109.457 345.485 109.457C348.045 109.457 350.122 107.38 350.122 104.82Z" stroke="#24173F" stroke-opacity="0.28" stroke-width="3"/>
<path d="M447.886 126.568C447.886 116.051 439.359 107.526 428.843 107.526C418.326 107.526 409.799 116.051 409.799 126.568C409.799 137.086 418.326 145.611 428.843 145.611C439.359 145.611 447.886 137.086 447.886 126.568Z" fill="#AA96F3" stroke="#24173F" stroke-opacity="0.28" stroke-width="3" stroke-miterlimit="10"/>
<path d="M849.546 398.343C849.546 394.954 846.798 392.206 843.409 392.206C840.021 392.206 837.274 394.954 837.274 398.343C837.274 401.731 840.021 404.479 843.409 404.479C846.798 404.479 849.546 401.731 849.546 398.343Z" fill="#AA96F3"/>
<path d="M848.046 398.343C848.046 395.782 845.97 393.706 843.409 393.706C840.85 393.706 838.774 395.781 838.774 398.343C838.774 400.903 840.85 402.979 843.409 402.979C845.97 402.979 848.046 400.902 848.046 398.343Z" stroke="#24173F" stroke-opacity="0.28" stroke-width="3"/>
<rect x="89.716" y="220.498" width="70" height="71" rx="1.5" transform="rotate(15 89.716 220.498)" fill="#FFCE34" stroke="#6644A8" stroke-width="3"/>
<line x1="143.771" y1="266.04" x2="87.7469" y2="251.028" stroke="#6644A8" stroke-width="3" stroke-linecap="round"/>
<line x1="140.665" y1="277.631" x2="84.6411" y2="262.619" stroke="#6644A8" stroke-width="3" stroke-linecap="round"/>
<line x1="138.077" y1="287.29" x2="82.0529" y2="272.279" stroke="#6644A8" stroke-width="3" stroke-linecap="round"/>
<path d="M119.034 235.391L127.292 229.013" stroke="#6644A8" stroke-width="3" stroke-linecap="round"/>
<circle cx="130.613" cy="226.28" r="7" transform="rotate(15 130.613 226.28)" fill="white" stroke="#6644A8" stroke-width="3"/>
<rect x="52.9973" y="232.533" width="70" height="71" rx="1.5" fill="#F778AC" stroke="#6644A8" stroke-width="3"/>
<line x1="116.997" y1="262.533" x2="58.9973" y2="262.533" stroke="#6644A8" stroke-width="3" stroke-linecap="round"/>
<line x1="116.997" y1="274.533" x2="58.9973" y2="274.533" stroke="#6644A8" stroke-width="3" stroke-linecap="round"/>
<line x1="116.997" y1="284.533" x2="58.9973" y2="284.533" stroke="#6644A8" stroke-width="3" stroke-linecap="round"/>
<path d="M85.1716 239.331L91.4973 231.033" stroke="#6644A8" stroke-width="3" stroke-linecap="round"/>
<circle cx="93.9973" cy="227.533" r="7" fill="white" stroke="#6644A8" stroke-width="3"/>
<path d="M492.311 666.167H526.845V471.544H492.311V666.167Z" fill="#4C5078" stroke="#6846A9"/>
<path d="M450.11 364.34L466.134 449.423L559.564 447.616L565.884 360.504L569.946 305.438C569.946 305.438 543.098 293.384 525.488 278.018C517.024 278.356 486.896 277.002 486.896 277.002C486.896 277.002 487.384 286.42 447.34 301.51L450.11 364.34Z" fill="#B7482C"/>
<path d="M527.344 642.934V471.043H491.81V607.774C503.583 619.57 515.419 631.298 527.344 642.934Z" fill="black" fill-opacity="0.2"/>
<path d="M396.988 334.7L398.063 581.037L622.464 580.058L621.389 333.721C621.224 295.966 590.483 265.492 552.729 265.656L465.053 266.039C427.298 266.204 396.824 296.945 396.988 334.7Z" fill="#4C5078" stroke="#584085"/>
<path d="M458.779 250.555H560.375C573.716 250.555 584.529 239.742 584.529 226.401V203.754C584.529 190.414 573.716 179.599 560.375 179.599H458.779C445.439 179.599 434.624 190.414 434.624 203.754V226.401C434.624 239.742 445.439 250.555 458.779 250.555Z" fill="#4C5078" stroke="#6846A9"/>
<path d="M366.553 609.111H652.601C667.228 609.111 679.084 597.254 679.084 582.628V582.14C679.084 567.515 667.228 555.658 652.601 555.658H366.553C351.928 555.658 340.07 567.515 340.07 582.14V582.628C340.07 597.254 351.928 609.111 366.553 609.111Z" fill="#4C5078" stroke="#6846A9"/>
<path fill-rule="evenodd" clip-rule="evenodd" d="M636.5 440.736C676.279 420.745 751.121 275.233 748.429 272.177C745.872 269.271 737.492 278.307 734.309 283.233C736.976 277.938 743.418 264.013 741.465 261.15C740.078 259.115 736.802 265.36 733.621 271.424L733.621 271.424C731.954 274.603 730.312 277.732 728.983 279.593C727.537 281.614 728.87 278.565 730.912 273.897C734.329 266.081 739.731 253.726 737.403 253.026C735.414 252.427 729.611 262.344 724.644 270.833L724.644 270.833C720.328 278.209 716.643 284.506 716.64 281.889C716.625 270.791 703.753 275.306 696.559 281.25C696.473 281.693 696.493 282.05 696.6 282.338C695.51 282.023 694.069 283.167 692.496 287.157C686.583 302.154 704.121 309.534 704.121 309.534C704.121 309.534 649.296 377.79 635.52 381.7C635.514 381.631 635.507 381.565 635.5 381.5C630 374.5 607 344 589 320C584.767 324.506 581.503 327.969 578.629 331.018C570.978 339.134 566.084 344.326 553 358.5C583.337 409.227 601.801 423.844 613.807 433.347L614 433.5C623.6 441.1 633 441.667 636.5 441C636.5 440.913 636.5 440.825 636.5 440.736ZM701.15 283.575C699.78 283.555 698.531 283.536 697.674 283.246C697.936 283.65 698.151 284.155 698.311 284.713C698.649 285.893 698.802 287.357 698.956 288.843C699.254 291.703 699.56 294.643 701.22 295.795C705.847 299.006 710.268 297.169 709.507 288.55C709.078 283.694 704.707 283.628 701.15 283.575Z" fill="#B7482C"/>
<path d="M635.8 441.5L635.8 441.106M636.5 440.736C676.279 420.745 751.121 275.233 748.429 272.177C745.872 269.271 737.492 278.307 734.309 283.233C736.976 277.938 743.418 264.013 741.465 261.15C740.078 259.115 736.802 265.36 733.621 271.424L733.621 271.424C731.954 274.603 730.312 277.732 728.983 279.593C727.537 281.614 728.87 278.565 730.912 273.897C734.329 266.081 739.731 253.726 737.403 253.026C735.414 252.427 729.611 262.344 724.644 270.833L724.644 270.833C720.328 278.209 716.643 284.506 716.64 281.889C716.625 270.791 703.753 275.306 696.559 281.25C696.473 281.693 696.493 282.05 696.6 282.338C695.51 282.023 694.069 283.167 692.496 287.157C686.583 302.154 704.121 309.534 704.121 309.534C704.121 309.534 649.296 377.79 635.52 381.7C635.514 381.631 635.507 381.565 635.5 381.5C630 374.5 607 344 589 320C584.767 324.506 581.503 327.969 578.629 331.018C570.978 339.134 566.084 344.326 553 358.5C583.337 409.227 601.801 423.844 613.807 433.347L614 433.5C623.6 441.1 633 441.667 636.5 441C636.5 440.913 636.5 440.825 636.5 440.736ZM697.674 283.246C698.531 283.536 699.78 283.555 701.15 283.575C704.707 283.628 709.078 283.694 709.507 288.55C710.268 297.169 705.847 299.006 701.22 295.795C699.56 294.643 699.254 291.703 698.956 288.843C698.802 287.357 698.649 285.893 698.311 284.713C698.151 284.155 697.936 283.65 697.674 283.246Z" stroke="#6846A9" stroke-width="3"/>
<path fill-rule="evenodd" clip-rule="evenodd" d="M375 444.736C335.221 424.745 260.379 279.233 263.071 276.177C265.628 273.271 274.008 282.307 277.191 287.233C274.524 281.938 268.082 268.013 270.035 265.15C271.422 263.115 274.698 269.36 277.879 275.424L277.879 275.424C279.546 278.603 281.188 281.732 282.517 283.593C283.963 285.614 282.63 282.565 280.588 277.897C277.171 270.081 271.769 257.726 274.097 257.026C276.086 256.427 281.889 266.344 286.856 274.833L286.856 274.833C291.172 282.209 294.857 288.506 294.86 285.889C294.875 274.791 307.747 279.306 314.941 285.25C315.027 285.693 315.007 286.05 314.9 286.338C315.99 286.023 317.431 287.167 319.004 291.157C324.917 306.154 307.379 313.534 307.379 313.534C307.379 313.534 362.204 381.79 375.98 385.7C375.986 385.631 375.993 385.565 376 385.5C381.5 378.5 404.5 348 422.5 324C426.733 328.506 429.997 331.969 432.871 335.018C440.522 343.134 445.416 348.326 458.5 362.5C428.163 413.227 409.699 427.844 397.693 437.347L397.5 437.5C387.9 445.1 378.5 445.667 375 445C375 444.913 375 444.825 375 444.736ZM310.35 287.575C311.72 287.555 312.969 287.536 313.826 287.246C313.564 287.65 313.349 288.155 313.189 288.713C312.851 289.893 312.698 291.357 312.544 292.843C312.246 295.703 311.94 298.643 310.28 299.795C305.653 303.006 301.232 301.169 301.993 292.55C302.422 287.694 306.793 287.628 310.35 287.575Z" fill="#B7482C" stroke="#6846A9" stroke-width="3"/>
<path d="M449.515 262.796C448.321 264.903 447.298 267.849 446.713 272.109L546.561 269.57L549.767 256.749L550.873 252.325L552.609 256.542L558.319 270.411H572.618C572.944 268.323 572.78 266.5 572.223 264.768C571.555 262.691 570.294 260.655 568.448 258.386C566.596 256.111 564.229 253.688 561.4 250.805L561.223 250.625C558.451 247.799 555.278 244.565 551.841 240.699C545.26 233.296 548.214 225.186 550.205 219.719L550.248 219.604L550.248 219.604C556.978 201.125 550.89 180.616 536.416 167.079C524.737 156.156 510.507 151.279 500.034 153.224C482.791 156.425 473.135 162.467 466.898 171.932C460.567 181.54 457.628 194.84 454.329 212.985C453.269 218.813 453.445 223.037 454.198 226.31C454.95 229.578 456.299 231.996 457.745 234.218C458.057 234.697 458.382 235.178 458.71 235.664C459.861 237.369 461.052 239.132 461.855 241.076C462.934 243.691 463.349 246.659 462.503 250.564C461.982 252.97 460.568 254.338 458.948 255.352C458.238 255.797 457.456 256.193 456.707 256.572C456.639 256.607 456.572 256.641 456.505 256.675C455.673 257.097 454.852 257.522 454.037 258.041C452.438 259.058 450.848 260.444 449.515 262.796Z" fill="black" stroke="#6846A9" stroke-width="3"/>
<mask id="path-65-inside-1_17_461" fill="white">
<path d="M501.105 156.797C495.32 153.301 491.036 147.168 490.394 140.439C489.753 133.711 493.061 126.599 498.95 123.279C504.045 120.407 510.637 120.593 515.736 123.459C520.834 126.324 524.368 131.68 525.342 137.447C526.406 143.736 524.348 150.625 519.54 154.82C513.496 160.093 504.573 160.363 496.653 159.087"/>
</mask>
<path d="M501.105 156.797C495.32 153.301 491.036 147.168 490.394 140.439C489.753 133.711 493.061 126.599 498.95 123.279C504.045 120.407 510.637 120.593 515.736 123.459C520.834 126.324 524.368 131.68 525.342 137.447C526.406 143.736 524.348 150.625 519.54 154.82C513.496 160.093 504.573 160.363 496.653 159.087" fill="black"/>
<path d="M490.394 140.439L493.381 140.154L493.381 140.154L490.394 140.439ZM498.95 123.279L497.477 120.665L497.477 120.665L498.95 123.279ZM525.342 137.447L522.384 137.947L522.384 137.947L525.342 137.447ZM519.54 154.82L517.567 152.559L517.567 152.559L519.54 154.82ZM499.553 159.365C493.061 155.442 488.15 148.514 487.408 140.723L493.381 140.154C493.921 145.822 497.578 151.161 502.657 154.23L499.553 159.365ZM487.408 140.723C486.666 132.944 490.447 124.628 497.477 120.665L500.424 125.892C495.675 128.569 492.84 134.477 493.381 140.154L487.408 140.723ZM497.477 120.665C503.549 117.242 511.259 117.502 517.205 120.843L514.266 126.074C510.015 123.685 504.54 123.571 500.424 125.892L497.477 120.665ZM517.205 120.843C523.157 124.188 527.187 130.359 528.3 136.947L522.384 137.947C521.548 133.001 518.512 128.46 514.266 126.074L517.205 120.843ZM528.3 136.946C529.515 144.128 527.206 152.113 521.512 157.081L517.567 152.559C521.489 149.138 523.297 143.344 522.384 137.947L528.3 136.946ZM521.512 157.081C514.408 163.279 504.292 163.356 496.176 162.048L497.13 156.125C504.854 157.369 512.584 156.908 517.567 152.559L521.512 157.081Z" fill="#6846A9" mask="url(#path-65-inside-1_17_461)"/>
<path d="M503.334 157.681C495.939 157.885 488.81 152.649 486.509 145.619C484.206 138.589 486.715 130.325 492.339 125.523C497.965 120.717 506.313 119.491 513.205 122.18C519.467 124.623 524.435 130.153 526.195 136.641C527.954 143.128 526.461 150.413 522.29 155.684" stroke="black" stroke-miterlimit="10"/>
<path d="M522.64 159.299C535.508 166.287 546.125 177.347 552.581 190.491C555.032 195.481 556.911 200.828 557.321 206.373C557.895 214.128 555.583 221.884 556.184 229.639C556.785 237.391 561.997 245.913 569.773 245.884C574.755 245.867 579.164 242.18 581.376 237.716" stroke="black" stroke-miterlimit="10"/>
<path d="M488.704 242.099L488.699 242.162C488.666 242.518 488.619 243.041 488.557 243.709C488.435 245.045 488.258 246.958 488.04 249.27C487.604 253.894 487.005 260.111 486.351 266.486C485.698 272.859 484.99 279.392 484.337 284.647C484.01 287.274 483.697 289.585 483.41 291.397C483.172 292.904 482.949 294.098 482.744 294.842C482.94 294.967 483.227 295.145 483.598 295.365C484.359 295.816 485.473 296.441 486.877 297.133C489.688 298.517 493.656 300.165 498.292 301.227C507.487 303.332 519.267 303.121 529.878 293.992C529.868 293.958 529.857 293.921 529.845 293.881C529.758 293.579 529.628 293.106 529.456 292.405C529.111 291.005 528.595 288.697 527.902 285.051C526.526 277.807 524.455 265.273 521.66 244.075L488.704 242.099Z" fill="#B7482C" stroke="#6846A9"/>
<path d="M488.25 241.571C488.25 241.571 483.891 290.046 482.157 295.056C482.157 295.056 508.787 313.111 530.453 294.155C530.453 294.155 527.745 286.482 522.102 243.6L488.25 241.571Z" stroke="#6846A9" stroke-miterlimit="10"/>
<path d="M485.933 242.895C486.158 244.25 494.824 261.343 506.534 260.595C520.173 259.724 523.365 243.184 523.365 243.184L485.933 242.895Z" fill="black" fill-opacity="0.4"/>
<path d="M464.713 224.32L464.713 224.32C463.739 222.949 463.122 221.178 462.853 219.448C462.584 217.711 462.674 216.078 463.052 214.988L464.713 224.32ZM464.713 224.32C465.918 226.016 467.428 226.835 469.219 226.835M464.713 224.32L469.219 226.835M469.219 226.835C470.07 226.835 471.007 226.647 472.015 226.261L468.899 214.183C468.129 213.828 466.74 213.287 465.459 213.287C464.792 213.287 464.303 213.432 463.935 213.692M469.219 226.835L463.935 213.692M463.935 213.692C463.567 213.952 463.27 214.363 463.052 214.987L463.935 213.692Z" fill="#B7482C" stroke="#6846A9"/>
<path d="M468.658 214.093L468.882 214.19L468.943 214.426L471.879 225.808L471.996 226.261L471.552 226.408C470.74 226.675 469.957 226.817 469.219 226.817C467.405 226.817 465.889 225.944 464.729 224.31C463.734 222.912 463.127 221.155 462.861 219.482C462.596 217.816 462.661 216.171 463.071 214.993C463.26 214.45 463.523 214.003 463.946 213.704C464.368 213.405 464.879 213.305 465.459 213.305C466.595 213.305 467.851 213.743 468.658 214.093ZM465.459 212.27C464.735 212.27 464.057 212.414 463.486 212.768C462.923 213.119 462.423 213.7 462.091 214.653C461.387 216.678 461.554 220.015 462.751 222.853C463.943 225.679 466.082 227.854 469.219 227.854C470.383 227.854 471.713 227.557 473.219 226.855L469.766 213.472C469.71 213.443 469.642 213.409 469.563 213.37C469.312 213.248 468.952 213.083 468.522 212.919C467.654 212.588 466.536 212.27 465.459 212.27Z" fill="#B7482C" stroke="#6846A9"/>
<path d="M470.195 221.033C470.195 221.033 465.005 211.104 464.102 218.552L470.195 221.033Z" fill="black"/>
<path d="M538.513 226.239L541.233 213.194C541.892 213.02 542.88 212.816 543.9 212.816C544.928 212.816 545.707 213.011 546.286 213.364C546.855 213.712 547.27 214.239 547.531 214.987C547.91 216.078 548 217.711 547.73 219.448C547.46 221.179 546.843 222.951 545.87 224.321L538.513 226.239ZM538.513 226.239C539.543 226.64 540.497 226.835 541.364 226.835C543.154 226.835 544.665 226.016 545.87 224.322L538.513 226.239Z" fill="#B7482C" stroke="#6846A9"/>
<path d="M538.531 226.237L538.95 226.38C539.794 226.667 540.602 226.817 541.366 226.817C543.178 226.817 544.694 225.944 545.855 224.311L538.531 226.237ZM538.531 226.237L538.622 225.805M538.531 226.237L538.622 225.805M538.622 225.805L541.184 213.515L541.249 213.203M538.622 225.805L541.249 213.203M541.249 213.203L541.56 213.13M541.249 213.203L541.56 213.13M541.56 213.13C542.183 212.984 543.026 212.836 543.901 212.836C545.083 212.836 545.91 213.095 546.492 213.527M541.56 213.13L546.492 213.527M546.492 213.527C547.075 213.961 547.349 214.522 547.513 214.995M546.492 213.527L547.513 214.995M547.513 214.995L547.041 215.159M547.513 214.995L547.041 215.159M547.041 215.159L547.513 214.994C547.923 216.172 547.987 217.817 547.723 219.483M547.041 215.159C546.746 214.309 546.123 213.336 543.901 213.336L547.723 219.483M547.723 219.483C547.457 221.156 546.849 222.913 545.855 224.311L547.723 219.483ZM548.492 214.654L548.492 214.654C548.092 213.503 547.412 212.805 546.617 212.383C545.808 211.955 544.852 211.8 543.901 211.8C542.911 211.8 541.96 211.968 541.251 212.139C540.898 212.224 540.608 212.309 540.408 212.372C540.392 212.377 540.376 212.382 540.361 212.387L537.346 226.847C538.86 227.555 540.196 227.853 541.366 227.853C544.502 227.853 546.641 225.679 547.834 222.852C549.031 220.015 549.197 216.679 548.492 214.654Z" fill="#B7482C" stroke="#6846A9"/>
<path d="M540.389 221.033C540.389 221.033 545.579 211.104 546.481 218.552L540.389 221.033Z" fill="black"/>
<path d="M534.627 182.597C529.975 176.509 521.093 172.813 503.266 172.815L503.253 172.82L503.162 172.817C484.373 172.127 475.73 176.956 471.861 184.303C469.909 188.009 469.137 192.415 468.949 197.212C468.774 201.663 469.103 206.409 469.435 211.206C469.461 211.58 469.487 211.955 469.512 212.329L469.866 216.036L469.866 216.036L469.867 216.049C470.563 226.188 477.315 234.91 485.242 241.142C489.198 244.252 493.427 246.726 497.297 248.431C501.177 250.141 504.658 251.06 507.123 251.1L507.115 251.599L507.123 251.1C510.03 251.147 513.619 249.983 517.388 247.847C521.147 245.715 525.043 242.64 528.554 238.924C535.584 231.483 541.003 221.548 540.785 211.577L540.547 207.836C540.547 207.836 540.547 207.835 540.547 207.835C540.531 207.602 540.515 207.371 540.499 207.141C540.163 202.228 539.853 197.693 539.081 193.622C538.273 189.365 536.966 185.657 534.627 182.597Z" fill="#B7482C" stroke="#6846A9"/>
<path d="M503.181 172.317L503.185 172.316C539.029 172.288 539.627 187.122 541.046 207.802L541.285 211.556C541.737 231.866 519.243 251.796 507.115 251.6C496.873 251.434 470.787 236.765 469.369 216.084L469.014 212.37C467.595 191.69 465.457 170.933 503.181 172.317Z" stroke="#6846A9" stroke-miterlimit="10"/>
<path d="M509.558 222.537L505.679 222.446C505.201 222.434 506.853 207.105 507.097 207.712C507.097 207.712 510.057 222.549 509.558 222.537Z" fill="#93311B"/>
<path d="M532.709 224.644C532.709 221.154 529.88 218.325 526.39 218.325C522.901 218.325 520.07 221.154 520.07 224.644C520.07 228.134 522.901 230.962 526.39 230.962C529.88 230.962 532.709 228.134 532.709 224.644Z" fill="#D76445"/>
<path d="M493.892 224.644C493.892 221.154 491.063 218.325 487.573 218.325C484.083 218.325 481.253 221.154 481.253 224.644C481.253 228.134 484.083 230.962 487.573 230.962C491.063 230.962 493.892 228.134 493.892 224.644Z" fill="#D76445"/>
<path d="M498.619 224.736C498.619 224.736 500.517 229.643 507.639 229.324C514.919 229.001 515.868 224.577 515.868 224.577" stroke="black" stroke-miterlimit="10" stroke-linecap="round"/>
<path d="M522.175 207.025C523.753 208.013 521.151 203.279 519.047 202.856C516.942 202.435 514.93 203.615 514.553 205.496C514.553 205.496 518.386 204.651 522.175 207.025Z" fill="black"/>
<path d="M491.013 207.336C489.424 208.291 493.496 203.278 495.604 202.872C497.712 202.468 500.329 204.502 500.68 206.322C500.68 206.322 494.83 205.044 491.013 207.336Z" fill="black"/>
<path d="M493.914 215.567C493.914 215.567 497.07 218.865 499.938 215.567" stroke="black" stroke-miterlimit="10" stroke-linecap="round"/>
<path d="M520.162 215.567C520.162 215.567 517.008 218.865 514.138 215.567" stroke="black" stroke-miterlimit="10" stroke-linecap="round"/>
<path d="M467.362 211.845C470.782 211.845 481.001 217.069 482.741 202.56C483.758 194.083 490.898 195.775 497.25 193.856C507.737 190.685 509.727 167.159 503.634 163.387C478.698 147.951 441.877 211.845 467.362 211.845Z" fill="black"/>
<path d="M493.238 170.929C493.238 170.929 505.955 168.901 509.436 182.538C512.187 193.307 524.923 188.934 526.556 193.566C533.522 213.297 548.923 220.281 545.418 197.627C545.418 197.627 535.566 140.769 493.238 170.929Z" fill="black"/>
<path d="M534.056 281.813C527.707 294.087 521.102 300.415 514.695 302.901C508.201 305.42 502.019 303.951 496.712 300.929C491.413 297.911 486.942 293.325 483.806 289.513C482.235 287.605 480.992 285.883 480.142 284.638C479.717 284.015 479.39 283.511 479.169 283.162C479.128 283.098 479.091 283.04 479.058 282.986C478.895 283.055 478.684 283.144 478.428 283.251C477.763 283.53 476.792 283.933 475.572 284.433C473.13 285.433 469.688 286.819 465.681 288.362C457.671 291.448 447.396 295.17 438.36 297.7C436.222 298.299 433.596 300.036 430.614 302.697C427.644 305.346 424.37 308.867 420.934 312.964C414.063 321.158 406.582 331.619 399.655 341.934C392.731 352.247 386.368 362.404 381.736 369.983C379.42 373.772 377.537 376.917 376.233 379.114C375.582 380.212 375.074 381.074 374.73 381.661C374.558 381.954 374.427 382.179 374.339 382.33L374.32 382.363L395.54 445.177L449.388 384.844L450.157 383.982L450.259 385.133L455.266 441.636H571.817L570.388 384.47L570.347 382.806L571.298 384.171L614.309 445.9L635.442 380.6C625.305 367.724 616.654 353.464 608.726 340.397C606.574 336.851 604.476 333.392 602.416 330.073C597.563 322.255 592.924 315.213 588.29 309.588C583.651 303.959 579.051 299.791 574.289 297.675C564.568 293.354 554.407 289.352 546.675 286.431C542.809 284.97 539.551 283.779 537.26 282.954C536.115 282.541 535.211 282.22 534.594 282.002C534.379 281.926 534.2 281.863 534.056 281.813Z" fill="#0D082D" stroke="#6846A9"/>
<mask id="mask8_17_461" style="mask-type:luminance" maskUnits="userSpaceOnUse" x="564" y="348" width="63" height="100">
<path d="M564.295 348.333H626.445V447.552H564.295V348.333Z" fill="white"/>
</mask>
<g mask="url(#mask8_17_461)">
<g opacity="0.429993">
<path d="M614.475 447.551L623.5 417L564.293 348.333L571.387 384.525L614.475 447.551Z" fill="#433A61"/>
</g>
</g>
<path d="M498.293 308.835L498.293 308.835C497.904 309.824 498.655 310.889 499.717 310.854L499.717 310.854L512.704 310.434L512.704 310.434C513.768 310.401 514.448 309.286 513.993 308.326L513.992 308.325L506.987 293.537L506.986 293.536C506.785 293.109 506.386 292.802 505.915 292.716L505.914 292.716C505.222 292.589 504.534 292.971 504.276 293.629L504.276 293.629L498.293 308.835Z" fill="#E4E2E3" stroke="#6846A9" stroke-width="3"/>
<path d="M492.748 315.189C493.501 316.271 494.169 317.231 494.724 318.028L503.134 291.236L483.69 272.44L473.193 286.642C473.329 286.86 473.495 287.118 473.69 287.417C474.334 288.407 475.259 289.791 476.374 291.439C478.605 294.735 481.58 299.065 484.559 303.377C487.536 307.688 490.514 311.977 492.748 315.189Z" fill="white" stroke="#6846A9" stroke-width="3"/>
<path d="M516.319 316.218C516.883 315.366 517.568 314.332 518.342 313.161C520.576 309.783 523.554 305.271 526.532 300.738C529.51 296.204 532.486 291.651 534.717 288.189C535.833 286.457 536.758 285.004 537.403 283.964C537.598 283.65 537.765 283.378 537.902 283.149L528.2 271.326L507.985 291.214L516.319 316.218Z" fill="white" stroke="#6846A9" stroke-width="3"/>
<path d="M353.247 548.992L356.424 574.348L400.777 577.972L412.951 539.723L353.247 548.992Z" fill="#B7482C" stroke="#6846A9" stroke-width="3"/>
<path d="M415.114 537.869L411.383 549.508L352.674 557.79L351.577 547.733L415.114 537.869Z" fill="black" fill-opacity="0.2"/>
<path d="M368.291 543.873C369.656 543.589 370.975 543.349 372.09 543.16L347.503 521.343C346.69 522.42 345.337 524.234 343.119 527.234C343.24 527.496 343.445 527.858 343.744 528.321C344.425 529.373 345.415 530.681 346.463 532.063L346.555 532.184C347.61 533.578 348.718 535.044 349.488 536.264C349.868 536.866 350.215 537.483 350.424 538.047C350.529 538.327 350.627 538.667 350.648 539.028C350.669 539.389 350.619 539.908 350.269 540.381L350.269 540.382C349.7 541.152 348.836 541.429 348.152 541.534C347.444 541.642 346.647 541.611 345.865 541.526C344.372 541.362 342.577 540.956 340.878 540.572C340.795 540.553 340.712 540.535 340.63 540.516C338.799 540.102 337.092 539.726 335.729 539.602C335.048 539.539 334.546 539.55 334.208 539.612C334.045 539.642 333.963 539.676 333.93 539.692C325.109 551.667 315.208 565.162 307.575 575.713C303.753 580.995 300.504 585.533 298.244 588.771C297.624 589.66 297.081 590.447 296.622 591.122C298.325 590.729 300.611 590.167 303.302 589.485C309.157 588.002 316.888 585.966 324.599 583.91C332.308 581.853 339.99 579.778 345.746 578.216C348.624 577.435 351.02 576.783 352.696 576.326C353.274 576.168 353.766 576.034 354.163 575.925C354.135 575.29 354.102 574.433 354.078 573.41C354.025 571.142 354.013 568.052 354.182 564.774C354.351 561.505 354.7 558.005 355.383 554.932C356.051 551.927 357.094 549.056 358.832 547.308L358.832 547.308C359.316 546.822 359.968 546.438 360.619 546.128C361.291 545.807 362.072 545.515 362.895 545.248C364.543 544.714 366.473 544.252 368.291 543.873ZM333.911 539.702C333.911 539.702 333.912 539.702 333.913 539.701C333.912 539.702 333.911 539.702 333.911 539.702Z" fill="#FFCE34" stroke="#6846A9" stroke-width="3"/>
<path d="M589.81 569.93C591.483 569.587 593.218 569.235 595.006 568.873C610.491 565.736 629.969 561.791 647.308 555.412C666.742 548.263 682.934 538.249 688.132 523.432C692.657 510.535 689.269 496.834 682.126 486.099C674.955 475.321 664.23 467.869 654.516 467.169C640.213 466.138 622.039 468.63 605.355 471.826C594.544 473.897 584.53 476.226 576.602 478.07C572.248 479.082 568.523 479.949 565.641 480.546C521.801 489.625 471.708 504.151 418.485 519.584C406.198 523.147 393.744 526.758 381.161 530.362C380.334 546.682 378.394 559.57 376.114 574.715C375.832 576.589 375.545 578.497 375.254 580.45C446.442 590.535 519.262 584.405 589.81 569.93Z" fill="#F778AC" stroke="#6846A9" stroke-width="3"/>
<path d="M514.928 490.997C474.6 501.459 430.68 514.578 385.067 527.677C398.064 547.065 410.64 566.734 423.309 586.338C479.095 588.831 535.307 582.643 590.112 571.399C622.32 564.791 678.663 554.954 689.548 523.929C689.604 523.767 689.645 523.605 689.699 523.443C631.717 511.371 573.032 502.525 514.928 490.997Z" fill="black" fill-opacity="0.2"/>
<mask id="mask9_17_461" style="mask-type:luminance" maskUnits="userSpaceOnUse" x="391" y="529" width="5" height="55">
<path d="M391.168 529.536H395.491V583.116H391.168V529.536Z" fill="white"/>
</mask>
<g mask="url(#mask9_17_461)">
<g opacity="0.520004">
<path d="M395.134 529.559L391.524 583.091" stroke="white" stroke-width="0.713333" stroke-miterlimit="10"/>
</g>
</g>
<path d="M610.402 540.065L622.143 578.449L666.534 575.325L669.997 550.007L610.402 540.065Z" fill="#B7482C" stroke="#6846A9" stroke-width="3"/>
<path d="M608.259 538.187L611.857 549.868L670.469 558.812L671.68 548.768L608.259 538.187Z" fill="black" fill-opacity="0.2"/>
<path d="M668.89 574.414C668.855 575.437 668.812 576.294 668.777 576.929C669.172 577.042 669.663 577.182 670.239 577.346C671.91 577.822 674.299 578.501 677.167 579.314C682.905 580.941 690.564 583.103 698.249 585.246C705.936 587.39 713.644 589.513 719.482 591.062C722.165 591.774 724.445 592.362 726.143 592.775C725.692 592.095 725.158 591.301 724.547 590.405C722.325 587.142 719.127 582.567 715.365 577.242C707.851 566.606 698.102 553 689.418 540.926C689.385 540.91 689.303 540.875 689.14 540.843C688.803 540.777 688.301 540.761 687.619 540.815C686.256 540.924 684.544 541.281 682.709 541.674C682.626 541.692 682.543 541.71 682.459 541.728C680.756 542.093 678.957 542.478 677.462 542.625C676.679 542.701 675.883 542.724 675.175 542.607C674.492 542.494 673.631 542.208 673.071 541.431L673.071 541.431C672.727 540.953 672.683 540.434 672.708 540.073C672.733 539.712 672.835 539.374 672.942 539.094C673.158 538.534 673.511 537.92 673.899 537.322C674.682 536.112 675.806 534.657 676.878 533.276L676.972 533.154C678.035 531.784 679.039 530.488 679.732 529.444C680.037 528.985 680.246 528.625 680.369 528.365C678.186 525.34 676.853 523.511 676.053 522.425L651.22 543.964C652.334 544.166 653.65 544.421 655.011 544.72C656.825 545.119 658.749 545.604 660.391 546.155C661.211 546.431 661.988 546.733 662.657 547.061C663.304 547.378 663.952 547.769 664.429 548.26L664.43 548.26C666.149 550.028 667.159 552.91 667.793 555.923C668.441 559.003 668.752 562.507 668.883 565.778C669.015 569.057 668.969 572.147 668.89 574.414ZM689.436 540.937C689.436 540.937 689.435 540.937 689.434 540.936C689.435 540.937 689.436 540.937 689.436 540.937Z" fill="#FFCE34" stroke="#6846A9" stroke-width="3"/>
<path d="M433.213 568.274L432.895 569.739L433.213 568.274C503.593 583.544 576.34 590.497 647.636 581.215C647.367 579.257 647.101 577.345 646.84 575.467C644.731 560.299 642.936 547.39 642.294 531.063C629.748 527.316 617.331 523.563 605.08 519.861C552.04 503.83 502.119 488.743 458.389 479.169C455.513 478.539 451.798 477.631 447.455 476.569C439.549 474.636 429.562 472.194 418.775 470.001C402.128 466.616 383.983 463.919 369.671 464.789C359.949 465.38 349.141 472.711 341.848 483.407C334.585 494.061 331.042 507.723 335.421 520.671C340.452 535.545 356.53 545.741 375.882 553.109C393.152 559.684 412.59 563.85 428.04 567.161C429.821 567.542 431.548 567.912 433.213 568.274Z" fill="#F778AC" stroke="#6846A9" stroke-width="3"/>
<mask id="mask10_17_461" style="mask-type:luminance" maskUnits="userSpaceOnUse" x="627" y="525" width="5" height="59">
<path d="M627.403 525.72H631.693V583.695H627.403V525.72Z" fill="white"/>
</mask>
<g mask="url(#mask10_17_461)">
<g opacity="0.520004">
<path d="M627.759 525.743L631.337 583.672" stroke="white" stroke-width="0.713333" stroke-miterlimit="10"/>
</g>
</g>
<path d="M137.02 840.883L137.02 840.883L219.262 506.548H169.22L121.386 837.838C121.386 837.838 121.386 837.839 121.386 837.839C120.693 842.646 124.421 846.951 129.277 846.951C132.947 846.951 136.143 844.447 137.02 840.883Z" fill="#E5785C" stroke="#6846A9" stroke-width="3"/>
<path d="M209.651 551.901L221.176 505.048H167.921L166.429 515.383C181.029 527.331 195.411 539.533 209.651 551.901Z" fill="black" fill-opacity="0.2"/>
<path d="M893.543 837.839L893.543 837.839L845.712 506.548H795.668L877.912 840.883L877.913 840.884C878.788 844.447 881.982 846.951 885.653 846.951C890.51 846.951 894.238 842.646 893.543 837.839Z" fill="#E5785C" stroke="#6846A9" stroke-width="3"/>
<path d="M848.174 513.112L847.01 505.048H793.755L805.438 552.544C819.559 539.267 833.786 526.103 848.174 513.112Z" fill="black" fill-opacity="0.2"/>
<path d="M129.348 503.192V522.025H870.652V503.192H129.348Z" fill="#B3513D" stroke="#6846A9" stroke-width="3"/>
<path d="M88.6213 484.38V505.603H911.38V484.38H88.6213Z" fill="#E5785C" stroke="#6846A9" stroke-width="3"/>
<path d="M660.74 483.137V484.637H659.24H621.451H619.951V483.137C619.951 475.372 626.247 469.076 634.012 469.076H646.679C654.445 469.076 660.74 475.372 660.74 483.137Z" fill="white" stroke="#6846A9" stroke-width="3"/>
<path d="M430.487 484.024H429.104L428.992 482.645L421.767 393.668C420.656 385.158 427.281 377.605 435.87 377.605H578.974C587.224 377.605 593.741 384.601 593.159 392.826L591.24 482.556L591.209 484.024H589.741H430.487Z" fill="white" stroke="#6846A9" stroke-width="3"/>
<path d="M503.118 425.099L505.428 424.169L504.403 426.438C503.921 427.504 503.641 428.666 503.641 429.892C503.641 434.541 507.409 438.308 512.057 438.308C513.162 438.308 514.214 438.083 515.19 437.689L517.505 436.754L516.476 439.028C514.843 442.636 511.226 445.165 506.998 445.165C501.247 445.165 496.585 440.501 496.585 434.749C496.585 430.367 499.295 426.637 503.118 425.099Z" fill="black" stroke="#6846A9" stroke-width="2"/>
<path d="M311.958 478.197C308.527 480.686 304.401 482.052 300.108 482.052C288.949 482.052 279.872 472.976 279.872 461.816C279.872 450.657 288.948 441.578 300.108 441.578C302.586 441.578 304.998 442.046 307.26 442.913V428.114V426.614H308.76H364.218H365.718V428.114V465.637C365.718 476.248 357.119 484.848 346.508 484.848H326.469C320.663 484.848 315.475 482.261 311.958 478.197ZM300.108 446.589C291.715 446.589 284.885 453.421 284.885 461.816C284.885 470.209 291.715 477.041 300.108 477.041C303.405 477.041 306.575 475.972 309.193 474.016C307.961 471.486 307.26 468.646 307.26 465.637V448.415C305.057 447.228 302.623 446.589 300.108 446.589Z" fill="#FFCE34" stroke="#6846A9" stroke-width="3"/>
<mask id="mask11_17_461" style="mask-type:luminance" maskUnits="userSpaceOnUse" x="281" y="430" width="84" height="54">
<path d="M281.372 430.688H364.219V483.348H281.372V430.688Z" fill="white"/>
</mask>
<g mask="url(#mask11_17_461)">
<g opacity="0.429993">
<path d="M300.108 443.079C300.195 443.079 300.28 443.093 300.368 443.095C300.442 443.775 300.524 444.452 300.618 445.125C300.447 445.12 300.28 445.089 300.108 445.089C290.887 445.089 283.386 452.593 283.386 461.816C283.386 471.037 290.887 478.541 300.108 478.541C304.167 478.541 308.047 477.067 311.096 474.407C309.616 471.821 308.759 468.831 308.759 465.637V465.397C310.724 467.657 313.091 469.647 315.974 471.264C329.584 478.904 344.339 472.723 352.936 460.9C359.486 451.892 363.216 441.468 364.219 430.688V465.637C364.219 475.42 356.29 483.348 346.508 483.348H326.47C320.608 483.348 315.426 480.488 312.203 476.1C308.82 478.965 304.562 480.551 300.108 480.551C289.778 480.551 281.372 472.149 281.372 461.816C281.372 451.485 289.778 443.079 300.108 443.079Z" fill="black" fill-opacity="0.2"/>
</g>
</g>
<path d="M748.493 462.475V481.511H870.367V462.475H748.493Z" fill="#F778AC" stroke="#6644A8" stroke-width="3"/>
<path d="M841.26 462.475V481.511H855.785V462.475H841.26Z" fill="#FFCE34" stroke="#6644A8" stroke-width="3"/>
<path d="M832.355 460.975V462.475H830.855H705.981H704.481V460.975V445.059V443.559H705.981H830.855H832.355V445.059V460.975Z" fill="#58D9A2" stroke="#6846A9" stroke-width="3"/>
<path d="M817.773 460.975V462.475H816.273H798.749H797.249V460.975V445.059V443.559H798.749H816.273H817.773V445.059V460.975Z" fill="#211C33" stroke="#6846A9" stroke-width="3"/>
<mask id="path-125-outside-2_17_461" maskUnits="userSpaceOnUse" x="694.542" y="359.607" width="45" height="61" fill="black">
<rect fill="white" x="694.542" y="359.607" width="45" height="61"/>
<path d="M720.755 411.799C714.031 406.104 707.88 399.56 703.713 391.798C699.545 384.034 697.471 374.943 699.095 366.283C699.312 365.126 699.679 363.858 700.689 363.254C701.436 362.808 702.368 362.832 703.225 362.968C708.664 363.82 712.729 368.251 716.332 372.414C724.816 382.218 733.656 392.778 735.511 405.61C736.103 409.699 735.3 414.859 731.421 416.275C728.151 417.471 724.663 415.228 722.157 412.811"/>
</mask>
<path d="M720.755 411.799C714.031 406.104 707.88 399.56 703.713 391.798C699.545 384.034 697.471 374.943 699.095 366.283C699.312 365.126 699.679 363.858 700.689 363.254C701.436 362.808 702.368 362.832 703.225 362.968C708.664 363.82 712.729 368.251 716.332 372.414C724.816 382.218 733.656 392.778 735.511 405.61C736.103 409.699 735.3 414.859 731.421 416.275C728.151 417.471 724.663 415.228 722.157 412.811" fill="#439C86"/>
<path d="M703.713 391.798L706.357 390.379L706.357 390.379L703.713 391.798ZM699.095 366.283L696.146 365.73L696.146 365.729L699.095 366.283ZM700.689 363.254L699.15 360.678L699.153 360.677L700.689 363.254ZM703.225 362.968L702.761 365.932L702.755 365.931L703.225 362.968ZM716.332 372.414L718.6 370.45L718.6 370.45L716.332 372.414ZM735.511 405.61L732.542 406.039L732.541 406.039L735.511 405.61ZM731.421 416.275L730.391 413.457L730.392 413.457L731.421 416.275ZM718.816 414.088C711.933 408.259 705.48 401.433 701.07 393.216L706.357 390.379C710.28 397.688 716.128 403.949 722.693 409.51L718.816 414.088ZM701.07 393.217C696.657 384.997 694.368 375.211 696.146 365.73L702.043 366.836C700.573 374.675 702.433 383.071 706.357 390.379L701.07 393.217ZM696.146 365.729C696.347 364.658 696.861 362.046 699.15 360.678L702.228 365.829C702.407 365.722 702.408 365.622 702.324 365.806C702.231 366.009 702.138 366.331 702.043 366.837L696.146 365.729ZM699.153 360.677C700.855 359.662 702.703 359.848 703.695 360.005L702.755 365.931C702.449 365.883 702.255 365.876 702.141 365.884C702.037 365.892 702.099 365.906 702.226 365.83L699.153 360.677ZM703.69 360.004C710.382 361.053 715.128 366.438 718.6 370.45L714.064 374.377C710.331 370.064 706.946 366.588 702.761 365.932L703.69 360.004ZM718.6 370.45C726.984 380.138 736.479 391.34 738.48 405.18L732.541 406.039C730.833 394.215 722.648 384.297 714.063 374.377L718.6 370.45ZM738.48 405.18C738.821 407.538 738.785 410.319 738.009 412.831C737.225 415.365 735.558 417.958 732.45 419.093L730.392 413.457C731.163 413.175 731.837 412.481 732.276 411.059C732.723 409.614 732.792 407.77 732.542 406.039L738.48 405.18ZM732.452 419.092C729.853 420.043 727.324 419.553 725.277 418.636C723.249 417.729 721.465 416.312 720.074 414.97L724.24 410.652C725.355 411.728 726.567 412.64 727.728 413.16C728.868 413.67 729.719 413.703 730.391 413.457L732.452 419.092Z" fill="#6846A9" mask="url(#path-125-outside-2_17_461)"/>
<mask id="path-127-outside-3_17_461" maskUnits="userSpaceOnUse" x="686.126" y="392.744" width="28" height="28" fill="black">
<rect fill="white" x="686.126" y="392.744" width="28" height="28"/>
<path d="M710.395 415.817C706.314 422.754 692.663 409.314 689.602 401.522C689.194 400.481 688.911 399.293 689.339 398.26C690.307 395.932 693.726 396.262 696.017 397.314C702.233 400.17 707.314 405.412 709.977 411.713C710.573 413.125 711.713 415.013 710.191 415.205"/>
</mask>
<path d="M710.395 415.817C706.314 422.754 692.663 409.314 689.602 401.522C689.194 400.481 688.911 399.293 689.339 398.26C690.307 395.932 693.726 396.262 696.017 397.314C702.233 400.17 707.314 405.412 709.977 411.713C710.573 413.125 711.713 415.013 710.191 415.205" fill="#439C86"/>
<path d="M689.602 401.522L686.81 402.619L686.809 402.617L689.602 401.522ZM689.339 398.26L686.568 397.112L686.569 397.108L689.339 398.26ZM696.017 397.314L697.269 394.588L697.269 394.588L696.017 397.314ZM709.977 411.713L712.74 410.545L712.741 410.546L709.977 411.713ZM712.981 417.338C712.158 418.738 710.978 419.787 709.485 420.332C708.041 420.86 706.559 420.824 705.228 420.54C702.647 419.988 700.023 418.372 697.735 416.53C693.142 412.832 688.58 407.125 686.81 402.619L692.394 400.425C693.685 403.711 697.479 408.621 701.498 411.857C703.515 413.481 705.261 414.411 706.482 414.672C707.053 414.794 707.331 414.731 707.426 414.696C707.473 414.679 707.613 414.631 707.81 414.296L712.981 417.338ZM686.809 402.617C686.358 401.466 685.662 399.299 686.568 397.112L692.111 399.408C692.148 399.319 692.11 399.324 692.135 399.523C692.161 399.733 692.239 400.03 692.395 400.428L686.809 402.617ZM686.569 397.108C687.662 394.479 690.112 393.64 692 393.525C693.866 393.412 695.788 393.908 697.269 394.588L694.765 400.041C693.955 399.669 693.022 399.474 692.364 399.514C692.053 399.533 691.941 399.596 691.952 399.59C692.004 399.56 692.081 399.479 692.109 399.412L686.569 397.108ZM697.269 394.588C704.166 397.757 709.786 403.554 712.74 410.545L707.213 412.881C704.842 407.269 700.3 402.584 694.764 400.04L697.269 394.588ZM712.741 410.546C712.892 410.904 712.987 411.087 713.221 411.617C713.397 412.018 713.637 412.587 713.787 413.184C713.913 413.685 714.141 414.801 713.637 415.968C712.993 417.457 711.645 418.045 710.567 418.181L709.816 412.229C709.693 412.244 709.382 412.302 709.022 412.534C708.628 412.787 708.315 413.159 708.13 413.586C707.961 413.976 707.947 414.299 707.95 414.45C707.953 414.601 707.976 414.678 707.969 414.649C707.95 414.574 707.888 414.394 707.731 414.038C707.657 413.87 707.58 413.704 707.489 413.504C707.403 413.316 707.305 413.098 707.213 412.88L712.741 410.546Z" fill="#6846A9" mask="url(#path-127-outside-3_17_461)"/>
<mask id="path-129-outside-4_17_461" maskUnits="userSpaceOnUse" x="739.64" y="342.566" width="35" height="77" fill="black">
<rect fill="white" x="739.64" y="342.566" width="35" height="77"/>
<path d="M747.938 416.226C740.797 418.266 741.858 378.606 745.378 360.195C746.365 355.03 748.18 349.261 752.958 347.067C756.298 345.533 760.389 346.269 763.424 348.342C766.46 350.415 768.538 353.653 769.888 357.071C771.768 361.831 772.306 367.407 769.973 371.961C768.909 374.037 767.304 375.803 766.273 377.897C763.744 383.035 765.046 389.143 764.512 394.846C763.617 404.381 756.961 413.145 748.016 416.566"/>
</mask>
<path d="M747.938 416.226C740.797 418.266 741.858 378.606 745.378 360.195C746.365 355.03 748.18 349.261 752.958 347.067C756.298 345.533 760.389 346.269 763.424 348.342C766.46 350.415 768.538 353.653 769.888 357.071C771.768 361.831 772.306 367.407 769.973 371.961C768.909 374.037 767.304 375.803 766.273 377.897C763.744 383.035 765.046 389.143 764.512 394.846C763.617 404.381 756.961 413.145 748.016 416.566" fill="#439C87"/>
<path d="M745.378 360.195L748.325 360.758L748.325 360.759L745.378 360.195ZM752.958 347.067L754.211 349.793L754.21 349.794L752.958 347.067ZM763.424 348.342L761.732 350.819L761.731 350.819L763.424 348.342ZM769.888 357.071L767.097 358.173L767.097 358.173L769.888 357.071ZM769.973 371.961L772.643 373.329L772.643 373.329L769.973 371.961ZM766.273 377.897L763.581 376.572L763.581 376.572L766.273 377.897ZM764.512 394.846L767.498 395.126L767.498 395.126L764.512 394.846ZM748.762 419.111C747.644 419.43 746.475 419.354 745.403 418.843C744.402 418.366 743.685 417.607 743.176 416.88C742.189 415.47 741.555 413.556 741.106 411.589C740.185 407.559 739.755 401.967 739.661 395.927C739.471 383.802 740.626 369.075 742.432 359.632L748.325 360.759C746.61 369.726 745.475 384.035 745.66 395.833C745.753 401.754 746.176 406.844 746.955 410.253C747.355 412.004 747.783 412.998 748.091 413.439C748.23 413.637 748.218 413.538 747.985 413.427C747.68 413.282 747.34 413.277 747.114 413.341L748.762 419.111ZM742.431 359.632C742.943 356.956 743.705 353.908 745.06 351.181C746.425 348.435 748.495 345.815 751.707 344.341L754.21 349.794C752.642 350.513 751.416 351.874 750.433 353.852C749.439 355.85 748.8 358.27 748.325 360.758L742.431 359.632ZM751.706 344.341C756.214 342.27 761.422 343.341 765.116 345.865L761.731 350.819C759.356 349.196 756.383 348.795 754.211 349.793L751.706 344.341ZM765.115 345.865C768.817 348.392 771.198 352.221 772.678 355.97L767.097 358.173C765.878 355.085 764.103 352.439 761.732 350.819L765.115 345.865ZM772.678 355.969C774.736 361.18 775.514 367.726 772.643 373.329L767.303 370.593C769.098 367.089 768.799 362.482 767.097 358.173L772.678 355.969ZM772.643 373.329C772.005 374.573 771.218 375.698 770.581 376.624C769.903 377.608 769.369 378.401 768.964 379.222L763.581 376.572C764.208 375.299 764.991 374.162 765.64 373.22C766.329 372.22 766.876 371.425 767.303 370.592L772.643 373.329ZM768.964 379.222C767.995 381.191 767.698 383.468 767.644 386.219C767.594 388.721 767.776 392.162 767.498 395.126L761.525 394.566C761.781 391.827 761.58 389.363 761.645 386.1C761.705 383.087 762.021 379.741 763.581 376.572L768.964 379.222ZM767.498 395.126C766.497 405.798 759.099 415.539 749.087 419.368L746.944 413.764C754.823 410.75 760.737 402.964 761.525 394.566L767.498 395.126Z" fill="#6846A9" mask="url(#path-129-outside-4_17_461)"/>
<path d="M736.182 379.417C734.611 380.037 733.049 379.284 731.966 378.533C730.8 377.724 729.665 376.556 728.7 375.425C727.722 374.279 726.859 373.1 726.244 372.213C725.935 371.769 725.687 371.394 725.514 371.129C725.427 370.996 725.36 370.89 725.313 370.817C725.292 370.783 725.275 370.756 725.263 370.737C723.686 368.484 722.723 366.801 722.032 364.96C721.348 363.139 720.956 361.221 720.445 358.583L720.445 358.582C720.119 356.898 719.976 354.916 720.335 353.086C720.696 351.244 721.606 349.396 723.513 348.326C725.58 347.165 727.793 347.483 729.635 348.334C731.466 349.18 733.108 350.619 734.31 352.08L734.31 352.08C738.026 356.601 740.405 362.203 741.079 368.02L741.079 368.02C741.315 370.067 741.212 372.405 740.526 374.474C739.835 376.554 738.496 378.506 736.183 379.417L736.182 379.417Z" fill="#439C86" stroke="#6846A9" stroke-width="3"/>
<mask id="path-132-outside-5_17_461" maskUnits="userSpaceOnUse" x="761.132" y="391.571" width="27" height="35" fill="black">
<rect fill="white" x="761.132" y="391.571" width="27" height="35"/>
<path d="M765.69 420.511C761.608 418.266 766.54 407.831 769.162 403.312C770.664 400.718 772.34 398.056 774.935 396.552C777.53 395.05 781.303 395.15 783.088 397.559C783.782 398.495 784.1 399.652 784.351 400.792C785.287 405.028 785.4 409.771 782.982 413.372C781.278 415.908 778.543 417.542 775.812 418.911C773.995 419.82 773.435 423.556 771.403 423.571C769.372 423.586 766.848 422.807 766.099 420.919"/>
</mask>
<path d="M765.69 420.511C761.608 418.266 766.54 407.831 769.162 403.312C770.664 400.718 772.34 398.056 774.935 396.552C777.53 395.05 781.303 395.15 783.088 397.559C783.782 398.495 784.1 399.652 784.351 400.792C785.287 405.028 785.4 409.771 782.982 413.372C781.278 415.908 778.543 417.542 775.812 418.911C773.995 419.82 773.435 423.556 771.403 423.571C769.372 423.586 766.848 422.807 766.099 420.919" fill="#439C86"/>
<path d="M769.162 403.312L771.758 404.816L771.757 404.818L769.162 403.312ZM774.935 396.552L773.43 393.957L773.431 393.956L774.935 396.552ZM783.088 397.559L785.499 395.773L785.499 395.773L783.088 397.559ZM784.351 400.792L781.422 401.44L781.421 401.437L784.351 400.792ZM782.982 413.372L785.472 415.045L785.472 415.046L782.982 413.372ZM775.812 418.911L777.157 421.593L777.155 421.594L775.812 418.911ZM771.403 423.571L771.381 420.571H771.381L771.403 423.571ZM764.244 423.14C761.941 421.873 761.244 419.559 761.146 417.667C761.049 415.792 761.477 413.748 762.042 411.891C763.186 408.13 765.196 404.169 766.567 401.807L771.757 404.818C770.505 406.974 768.739 410.49 767.782 413.637C767.296 415.235 767.093 416.502 767.138 417.357C767.181 418.194 767.397 418.026 767.136 417.883L764.244 423.14ZM766.566 401.809C768.038 399.267 770.058 395.912 773.43 393.957L776.439 399.148C774.622 400.201 773.291 402.168 771.758 404.816L766.566 401.809ZM773.431 393.956C775.266 392.894 777.48 392.406 779.592 392.602C781.719 392.799 783.983 393.727 785.499 395.773L780.678 399.345C780.408 398.982 779.893 398.655 779.038 398.576C778.169 398.495 777.199 398.708 776.438 399.148L773.431 393.956ZM785.499 395.773C786.604 397.265 787.024 398.981 787.281 400.148L781.421 401.437C781.176 400.323 780.959 399.725 780.678 399.345L785.499 395.773ZM787.28 400.145C788.271 404.631 788.588 410.405 785.472 415.045L780.491 411.7C782.212 409.137 782.302 405.426 781.422 401.44L787.28 400.145ZM785.472 415.046C783.3 418.278 779.935 420.2 777.157 421.593L774.467 416.229C777.151 414.884 779.256 413.539 780.491 411.699L785.472 415.046ZM777.155 421.594C777.352 421.495 777.323 421.428 777.088 421.758C776.844 422.101 776.651 422.461 776.27 423.105C775.96 423.628 775.477 424.424 774.815 425.086C774.096 425.805 772.97 426.56 771.425 426.571L771.381 420.571C770.852 420.575 770.558 420.858 770.573 420.843C770.644 420.772 770.795 420.574 771.106 420.049C771.346 419.643 771.761 418.897 772.197 418.283C772.642 417.657 773.364 416.782 774.47 416.228L777.155 421.594ZM771.425 426.571C770.06 426.581 768.492 426.331 767.066 425.706C765.653 425.087 764.075 423.952 763.311 422.026L768.887 419.812C768.887 419.812 768.887 419.813 768.888 419.813C768.888 419.813 768.888 419.814 768.889 419.815C768.89 419.817 768.892 419.821 768.897 419.828C768.907 419.842 768.929 419.87 768.971 419.908C769.06 419.988 769.219 420.099 769.475 420.211C770.006 420.444 770.716 420.576 771.381 420.571L771.425 426.571Z" fill="#6846A9" mask="url(#path-132-outside-5_17_461)"/>
<path d="M698.365 404.14C711.667 415.419 723.208 428.768 732.447 443.557" stroke="#6846A9" stroke-width="2" stroke-miterlimit="10" stroke-linecap="round"/>
<path d="M709.678 376.308C726.013 399.208 738.742 424.673 747.253 451.484" stroke="#6846A9" stroke-width="2" stroke-miterlimit="10" stroke-linecap="round"/>
<path d="M730.277 359.614C739.822 390.074 744.511 422.049 744.113 453.967" stroke="#6846A9" stroke-width="2" stroke-miterlimit="10" stroke-linecap="round"/>
<path d="M757.846 372.036C750.44 398.914 746.364 426.709 745.742 454.582" stroke="#6846A9" stroke-width="2" stroke-miterlimit="10" stroke-linecap="round"/>
<path d="M777.713 406.214C765.741 420.465 755.378 436.066 746.885 452.628" stroke="#6846A9" stroke-width="2" stroke-miterlimit="10" stroke-linecap="round"/>
<path d="M726.225 482.029H759.45C764.809 482.029 769.151 477.685 769.151 472.328V428.903H716.523V472.328C716.523 477.685 720.867 482.029 726.225 482.029Z" fill="#FFCE34" stroke="#6644A8" stroke-width="3"/>
<mask id="mask12_17_461" style="mask-type:luminance" maskUnits="userSpaceOnUse" x="715" y="427" width="56" height="57">
<path d="M769.152 482.03V428.903H716.523V482.03H769.152Z" fill="white" stroke="white" stroke-width="3"/>
</mask>
<g mask="url(#mask12_17_461)">
<g opacity="0.429993">
<path d="M770.652 427.403V472.327C770.652 478.514 765.637 483.53 759.451 483.53H726.225C720.039 483.53 715.023 478.514 715.023 472.327" fill="black" fill-opacity="0.27"/>
</g>
</g>
<path d="M285.504 414.032V380.5H157.225V414.032H285.504Z" fill="#F778AC" stroke="#6846A9" stroke-width="3"/>
<path d="M185.067 405.913C189.786 405.913 193.528 402.223 193.528 397.773C193.528 393.322 189.786 389.632 185.067 389.632C180.347 389.632 176.604 393.323 176.604 397.773C176.604 402.223 180.347 405.913 185.067 405.913Z" fill="#FBF9F6" stroke="#6846A9" stroke-width="3"/>
<path d="M212.829 387.313H271.783V407.729H212.829V387.313Z" fill="#FBF9F6" stroke="#6846A9" stroke-width="3" stroke-miterlimit="10"/>
<path d="M264.709 449.089V415.556H136.431V449.089H264.709Z" fill="#58D9A2" stroke="#6846A9" stroke-width="3"/>
<path d="M164.273 440.972C168.993 440.972 172.734 437.281 172.734 432.832C172.734 428.379 168.992 424.689 164.273 424.689C159.553 424.689 155.81 428.38 155.81 432.832C155.81 437.281 159.553 440.972 164.273 440.972Z" fill="#FBF9F6" stroke="#6846A9" stroke-width="3"/>
<path d="M192.036 422.371H250.989V442.788H192.036V422.371Z" fill="#FBF9F6" stroke="#6846A9" stroke-width="3" stroke-miterlimit="10"/>
<path d="M278.18 482.191V448.657H149.903V482.191H278.18Z" fill="#FFCE34" stroke="#6846A9" stroke-width="3"/>
<path d="M177.744 475.572C183.246 475.572 187.706 471.256 187.706 465.932C187.706 460.605 183.246 456.289 177.744 456.289C172.243 456.289 167.782 460.605 167.782 465.932C167.782 471.256 172.243 475.572 177.744 475.572Z" fill="#FBF9F6"/>
<path d="M177.744 475.572C183.246 475.572 187.706 471.256 187.706 465.932C187.706 460.605 183.246 456.289 177.744 456.289C172.243 456.289 167.782 460.605 167.782 465.932C167.782 471.256 172.243 475.572 177.744 475.572Z" stroke="#6846A9" stroke-width="3" stroke-miterlimit="10"/>
<path d="M262.961 474.388V456.971H207.008V474.388H262.961Z" fill="#FBF9F6" stroke="#6846A9" stroke-width="3"/>
<path d="M258.528 159.123C258.528 125.077 230.929 97.4788 196.884 97.4788C162.839 97.4788 135.239 125.077 135.239 159.123C135.239 193.168 162.839 220.767 196.884 220.767C230.929 220.767 258.528 193.168 258.528 159.123Z" fill="black" fill-opacity="0.04"/>
<path d="M254.1 149.159C254.1 115.114 226.5 87.5154 192.456 87.5154C158.41 87.5154 130.811 115.114 130.811 149.159C130.811 183.205 158.41 210.803 192.456 210.803C226.5 210.803 254.1 183.205 254.1 149.159Z" fill="white"/>
<path d="M254.971 149.159C254.971 114.632 226.981 86.6433 192.456 86.6433C157.93 86.6433 129.94 114.632 129.94 149.159C129.94 183.686 157.93 211.674 192.456 211.674C226.981 211.674 254.971 183.686 254.971 149.159Z" fill="#FFCE34" stroke="#6846A9" stroke-width="3"/>
<path d="M242.108 149.159C242.108 121.737 219.878 99.5073 192.456 99.5073C165.033 99.5073 142.804 121.737 142.804 149.159C142.804 176.58 165.033 198.811 192.456 198.811C219.878 198.811 242.108 176.58 242.108 149.159Z" fill="#EDE9F9" stroke="#6846A9" stroke-width="3"/>
<mask id="mask13_17_461" style="mask-type:luminance" maskUnits="userSpaceOnUse" x="141" y="98" width="70" height="71">
<path d="M141.304 98.0067H210.449V168.615H141.304V98.0067Z" fill="white"/>
</mask>
<g mask="url(#mask13_17_461)">
<g opacity="0.619995">
<path d="M158.013 153.119L158.013 153.119C159.186 151.901 160.359 150.683 161.532 149.465C176.853 133.554 192.186 117.631 207.715 101.904C202.908 100.351 197.782 99.5074 192.455 99.5074C165.033 99.5074 142.803 121.737 142.803 149.159C142.803 155.03 143.828 160.657 145.699 165.882C149.808 161.631 153.913 157.377 158.013 153.119Z" fill="white" stroke="#6846A9" stroke-width="3"/>
</g>
</g>
<mask id="mask14_17_461" style="mask-type:luminance" maskUnits="userSpaceOnUse" x="152" y="108" width="82" height="81">
<path d="M152.028 108.819H233.073V188.887H152.028V108.819Z" fill="white"/>
</mask>
<g mask="url(#mask14_17_461)">
<g opacity="0.619995">
<path d="M167.894 179.351C166.495 180.684 165.086 182.025 163.697 183.388L167.894 179.351ZM167.894 179.351L168.011 179.239M167.894 179.351L168.011 179.239M168.011 179.239C169.452 177.867 170.882 176.504 172.289 175.119M168.011 179.239L172.289 175.119M172.289 175.119C191.76 155.944 211.347 136.884 231.053 117.951M172.289 175.119L231.053 117.951M231.053 117.951C228.941 115.344 226.571 112.954 223.982 110.823C205.198 129.346 186.562 148.017 167.922 166.693C163.294 171.329 158.666 175.966 154.036 180.6C155.882 182.852 157.921 184.937 160.129 186.832C160.876 186.074 161.651 185.339 162.377 184.652C162.845 184.209 163.292 183.786 163.697 183.388L231.053 117.951Z" fill="white" stroke="#6846A9" stroke-width="3"/>
</g>
</g>
<path d="M196.751 149.159C196.751 146.787 194.828 144.864 192.455 144.864C190.083 144.864 188.16 146.787 188.16 149.159C188.16 151.532 190.083 153.455 192.455 153.455C194.828 153.455 196.751 151.532 196.751 149.159Z" fill="black" stroke="#6846A9" stroke-width="0.5"/>
<path d="M192.761 107.357L192.761 107.357C192.756 107.153 192.585 106.993 192.38 107.004C192.191 107.014 192.042 107.168 192.038 107.358C192.038 107.358 192.038 107.358 192.038 107.358L191.193 149.928L214.944 161.603C215.179 161.718 215.463 161.622 215.58 161.389C215.693 161.162 215.61 160.888 215.391 160.762C215.391 160.762 215.39 160.762 215.39 160.761L193.847 148.454L193.724 148.384L193.721 148.243L192.761 107.357Z" fill="black" stroke="#6846A9" stroke-width="0.5"/>
</g>
<defs>
<clipPath id="clip0_17_461">
<rect width="1000" height="667" fill="white"/>
</clipPath>
</defs>
</svg>
