<svg width="1000" height="667" viewBox="0 0 1000 667" fill="none" xmlns="http://www.w3.org/2000/svg">
<g clip-path="url(#clip0_2_9)">
<mask id="mask0_2_9" style="mask-type:luminance" maskUnits="userSpaceOnUse" x="0" y="0" width="1000" height="667">
<path d="M0 6.10352e-05H1000V666.667H0V6.10352e-05Z" fill="white"/>
</mask>
<g mask="url(#mask0_2_9)">
<mask id="mask1_2_9" style="mask-type:luminance" maskUnits="userSpaceOnUse" x="128" y="78" width="744" height="265">
<path d="M128.44 78.6507H871.56V342.857H128.44V78.6507Z" fill="white"/>
</mask>
<g mask="url(#mask1_2_9)">
<g opacity="0.860001">
<path d="M865.971 342.857L506.379 298.399H865.971V342.857Z" fill="#696672"/>
<path d="M871.56 324.164H481.628V78.6507H871.56V324.164Z" fill="#AEA4C8"/>
<mask id="mask2_2_9" style="mask-type:luminance" maskUnits="userSpaceOnUse" x="520" y="114" width="126" height="165">
<path d="M520.139 114.756H645.303V278.432H520.139V114.756Z" fill="white"/>
</mask>
<g mask="url(#mask2_2_9)">
<g opacity="0.320007">
<path d="M645.303 278.432H520.139V114.756H645.303V278.432Z" fill="#787485"/>
</g>
</g>
<path d="M771.773 239.503H716.412L715.105 186.966H770.466L771.773 239.503Z" fill="white"/>
<path d="M757.228 192.984H730.752V178.541H757.228V192.984Z" fill="#FFC994"/>
<path d="M833.048 172.524H777.687V114.756H833.048V172.524Z" fill="white"/>
<path d="M817.401 120.773H790.925V106.331H817.401V120.773Z" fill="#FFC994"/>
<mask id="mask3_2_9" style="mask-type:luminance" maskUnits="userSpaceOnUse" x="539" y="143" width="88" height="100">
<path d="M539.992 143.033H626.652V242.932H539.992V143.033Z" fill="white"/>
</mask>
<g mask="url(#mask3_2_9)">
<g opacity="0.600006">
<mask id="mask4_2_9" style="mask-type:luminance" maskUnits="userSpaceOnUse" x="539" y="143" width="88" height="4">
<path d="M539.992 143.033H626.652V146.653H539.992V143.033Z" fill="white"/>
</mask>
<g mask="url(#mask4_2_9)">
<path d="M541.802 144.843H624.843" stroke="#605B6F" stroke-width="3.61867" stroke-miterlimit="10" stroke-linecap="round"/>
</g>
<mask id="mask5_2_9" style="mask-type:luminance" maskUnits="userSpaceOnUse" x="539" y="163" width="88" height="5">
<path d="M539.992 163.493H626.652V167.112H539.992V163.493Z" fill="white"/>
</mask>
<g mask="url(#mask5_2_9)">
<path d="M541.802 165.303H624.843" stroke="#605B6F" stroke-width="3.61867" stroke-miterlimit="10" stroke-linecap="round"/>
</g>
<mask id="mask6_2_9" style="mask-type:luminance" maskUnits="userSpaceOnUse" x="572" y="205" width="55" height="5">
<path d="M572.487 205.616H626.652V209.235H572.487V205.616Z" fill="white"/>
</mask>
<g mask="url(#mask6_2_9)">
<path d="M574.296 207.425H624.843" stroke="#605B6F" stroke-width="3.61867" stroke-miterlimit="10" stroke-linecap="round"/>
</g>
<mask id="mask7_2_9" style="mask-type:luminance" maskUnits="userSpaceOnUse" x="572" y="222" width="55" height="5">
<path d="M572.487 222.464H626.652V226.084H572.487V222.464Z" fill="white"/>
</mask>
<g mask="url(#mask7_2_9)">
<path d="M574.296 224.274H624.843" stroke="#605B6F" stroke-width="3.61867" stroke-miterlimit="10" stroke-linecap="round"/>
</g>
<mask id="mask8_2_9" style="mask-type:luminance" maskUnits="userSpaceOnUse" x="572" y="239" width="55" height="4">
<path d="M572.487 239.313H626.652V242.932H572.487V239.313Z" fill="white"/>
</mask>
<g mask="url(#mask8_2_9)">
<path d="M574.296 241.123H624.843" stroke="#605B6F" stroke-width="3.61867" stroke-miterlimit="10" stroke-linecap="round"/>
</g>
</g>
</g>
<path d="M258.528 159.123C258.528 125.077 230.929 97.4788 196.884 97.4788C162.839 97.4788 135.239 125.077 135.239 159.123C135.239 193.168 162.839 220.767 196.884 220.767C230.929 220.767 258.528 193.168 258.528 159.123Z" fill="#7C7984"/>
<path d="M254.1 149.159C254.1 115.114 226.5 87.5153 192.456 87.5153C158.41 87.5153 130.811 115.114 130.811 149.159C130.811 183.205 158.41 210.803 192.456 210.803C226.5 210.803 254.1 183.205 254.1 149.159Z" fill="white"/>
<path d="M256.471 149.159C256.471 113.803 227.81 85.1433 192.456 85.1433C157.102 85.1433 128.44 113.803 128.44 149.159C128.44 184.514 157.102 213.174 192.456 213.174C227.81 213.174 256.471 184.514 256.471 149.159Z" fill="#FFC994"/>
<path d="M243.608 149.159C243.608 120.909 220.706 98.0074 192.456 98.0074C164.205 98.0074 141.304 120.909 141.304 149.159C141.304 177.409 164.205 200.311 192.456 200.311C220.706 200.311 243.608 177.409 243.608 149.159Z" fill="#DFD9EE"/>
<mask id="mask9_2_9" style="mask-type:luminance" maskUnits="userSpaceOnUse" x="141" y="98" width="70" height="71">
<path d="M141.304 98.0067H210.449V168.615H141.304V98.0067Z" fill="white"/>
</mask>
<g mask="url(#mask9_2_9)">
<g opacity="0.619995">
<path d="M159.094 154.159C176.138 136.462 193.168 118.741 210.45 101.271C204.851 99.166 198.79 98.0074 192.455 98.0074C164.204 98.0074 141.303 120.909 141.303 149.159C141.303 156.049 142.674 162.615 145.143 168.614C149.799 163.801 154.45 158.982 159.094 154.159Z" fill="white"/>
</g>
</g>
<mask id="mask10_2_9" style="mask-type:luminance" maskUnits="userSpaceOnUse" x="152" y="108" width="82" height="81">
<path d="M152.028 108.819H233.073V188.887H152.028V108.819Z" fill="white"/>
</mask>
<g mask="url(#mask10_2_9)">
<g opacity="0.619995">
<path d="M164.748 184.459C167.585 181.675 170.508 178.977 173.341 176.188C193.132 156.699 213.041 137.329 233.073 118.091C230.414 114.624 227.324 111.504 223.878 108.819C199.785 132.564 175.938 156.559 152.028 180.488C154.438 183.593 157.198 186.411 160.248 188.885C161.693 187.296 163.35 185.829 164.748 184.459Z" fill="white"/>
</g>
</g>
<path d="M197.001 149.159C197.001 146.649 194.966 144.614 192.455 144.614C189.945 144.614 187.91 146.649 187.91 149.159C187.91 151.67 189.945 153.705 192.455 153.705C194.966 153.705 197.001 151.67 197.001 149.159Z" fill="black"/>
<path d="M214.833 161.827L190.94 150.082L191.788 107.353C191.795 107.031 192.047 106.771 192.367 106.754C192.712 106.737 193.003 107.006 193.011 107.351L193.971 148.237L215.515 160.545C215.849 160.737 215.976 161.155 215.804 161.501C215.625 161.857 215.192 162.003 214.833 161.827Z" fill="black"/>
</g>
</g>
<mask id="mask11_2_9" style="mask-type:luminance" maskUnits="userSpaceOnUse" x="174" y="98" width="710" height="553">
<path d="M174.849 98.6826H883.981V650.099H174.849V98.6826Z" fill="white"/>
</mask>
<g mask="url(#mask11_2_9)">
<path d="M199.459 280.683C199.459 274.071 194.099 268.711 187.487 268.711C180.875 268.711 175.517 274.071 175.517 280.683C175.517 287.295 180.875 292.655 187.487 292.655C194.099 292.655 199.459 287.295 199.459 280.683Z" fill="#EBE9F1" stroke="#EDEBF2" stroke-width="1.33333" stroke-miterlimit="10"/>
<path d="M883.315 374.399C883.315 367.788 877.955 362.427 871.343 362.427C864.732 362.427 859.372 367.788 859.372 374.399C859.372 381.011 864.732 386.371 871.343 386.371C877.955 386.371 883.315 381.011 883.315 374.399Z" fill="#EBE9F1" stroke="#EDEBF2" stroke-width="1.33333" stroke-miterlimit="10"/>
<path d="M265.08 559.131C265.08 552.519 259.72 547.159 253.108 547.159C246.498 547.159 241.138 552.519 241.138 559.131C241.138 565.743 246.498 571.103 253.108 571.103C259.72 571.103 265.08 565.743 265.08 559.131Z" fill="#EBE9F1" stroke="#EDEBF2" stroke-width="1.33333" stroke-miterlimit="10"/>
<path d="M385.319 301.24C385.319 297.851 382.571 295.104 379.183 295.104C375.794 295.104 373.046 297.851 373.046 301.24C373.046 304.629 375.794 307.377 379.183 307.377C382.571 307.377 385.319 304.629 385.319 301.24Z" fill="#EBE9F1"/>
<path d="M466.67 149.158C466.67 145.725 463.887 142.942 460.453 142.942C457.019 142.942 454.237 145.725 454.237 149.158C454.237 152.591 457.019 155.375 460.453 155.375C463.887 155.375 466.67 152.591 466.67 149.158Z" fill="#EBE9F1"/>
<path d="M231.665 597.866C231.665 593.513 228.136 589.984 223.782 589.984C219.428 589.984 215.898 593.513 215.898 597.866C215.898 602.221 219.428 605.75 223.782 605.75C228.136 605.75 231.665 602.221 231.665 597.866Z" fill="#EBE9F1"/>
<path d="M755.088 578.359C755.088 574.004 751.559 570.475 747.205 570.475C742.851 570.475 739.321 574.004 739.321 578.359C739.321 582.712 742.851 586.241 747.205 586.241C751.559 586.241 755.088 582.712 755.088 578.359Z" fill="#EBE9F1"/>
<path d="M720.17 637.167C720.17 630.394 714.678 624.902 707.905 624.902C701.132 624.902 695.641 630.394 695.641 637.167C695.641 643.94 701.132 649.432 707.905 649.432C714.678 649.432 720.17 643.94 720.17 637.167Z" fill="#EBE9F1" stroke="#EDEBF2" stroke-width="1.33333" stroke-miterlimit="10"/>
<path d="M351.622 104.819C351.622 101.43 348.874 98.6821 345.485 98.6821C342.097 98.6821 339.349 101.43 339.349 104.819C339.349 108.209 342.097 110.957 345.485 110.957C348.874 110.957 351.622 108.209 351.622 104.819Z" fill="#EBE9F1"/>
<path d="M447.886 126.568C447.886 116.051 439.359 107.526 428.843 107.526C418.326 107.526 409.799 116.051 409.799 126.568C409.799 137.086 418.326 145.611 428.843 145.611C439.359 145.611 447.886 137.086 447.886 126.568Z" fill="#EBE9F1" stroke="#EDEBF2" stroke-width="1.33333" stroke-miterlimit="10"/>
<path d="M693.917 146.942C693.917 143.553 691.169 140.805 687.78 140.805C684.391 140.805 681.644 143.553 681.644 146.942C681.644 150.33 684.391 153.078 687.78 153.078C691.169 153.078 693.917 150.33 693.917 146.942Z" fill="#EBE9F1" stroke="#EDEBF2" stroke-width="1.33333" stroke-miterlimit="10"/>
<path d="M849.546 398.343C849.546 394.954 846.798 392.206 843.409 392.206C840.021 392.206 837.274 394.954 837.274 398.343C837.274 401.731 840.021 404.479 843.409 404.479C846.798 404.479 849.546 401.731 849.546 398.343Z" fill="#EBE9F1"/>
</g>
</g>
<path d="M491.811 666.667H527.345V471.044H491.811V666.667Z" fill="#544E66"/>
<path d="M527.345 642.934V471.043H491.81V607.774C503.583 619.57 515.419 631.298 527.345 642.934Z" fill="black"/>
<path d="M622.278 581.049H396.875V334.21C396.875 296.178 427.707 265.346 465.739 265.346H553.415C591.446 265.346 622.278 296.178 622.278 334.21V581.049Z" fill="#675E87"/>
<path d="M560.375 251.055H458.779C445.163 251.055 434.124 240.018 434.124 226.401V203.754C434.124 190.138 445.163 179.099 458.779 179.099H560.375C573.992 179.099 585.029 190.138 585.029 203.754V226.401C585.029 240.018 573.992 251.055 560.375 251.055Z" fill="#675E87"/>
<path d="M652.601 609.611H366.553C351.652 609.611 339.57 597.53 339.57 582.628V582.14C339.57 567.239 351.652 555.158 366.553 555.158H652.601C667.504 555.158 679.584 567.239 679.584 582.14V582.628C679.584 597.53 667.504 609.611 652.601 609.611Z" fill="#675E87"/>
<path d="M445.018 273.653C447.194 252.325 459.406 257.775 461.037 250.246C464.17 235.786 448.501 236.656 452.853 212.717C459.429 176.548 464.756 158.248 499.76 151.749C510.846 149.69 525.537 154.85 537.441 165.984C552.297 179.878 558.618 201.004 551.657 220.117C549.629 225.686 546.993 232.988 552.962 239.702C566.892 255.372 576.466 260.595 573.854 271.911H557.314L551.222 257.113L547.74 271.041L445.018 273.653Z" fill="black"/>
<path d="M501.105 156.797C495.32 153.301 491.036 147.168 490.394 140.439C489.753 133.711 493.061 126.599 498.95 123.279C504.045 120.407 510.637 120.593 515.736 123.459C520.834 126.324 524.368 131.68 525.342 137.447C526.406 143.736 524.348 150.625 519.54 154.82C513.496 160.093 504.573 160.363 496.653 159.087" fill="black"/>
<path d="M503.334 157.681C495.939 157.885 488.81 152.649 486.509 145.619C484.206 138.589 486.715 130.325 492.339 125.523C497.965 120.717 506.313 119.491 513.205 122.18C519.467 124.623 524.435 130.153 526.195 136.641C527.954 143.128 526.461 150.413 522.29 155.684" stroke="black" stroke-width="1.01733" stroke-miterlimit="10"/>
<path d="M522.64 159.299C535.508 166.287 546.125 177.347 552.581 190.491C555.032 195.481 556.911 200.828 557.321 206.373C557.895 214.128 555.583 221.884 556.184 229.639C556.785 237.391 561.997 245.913 569.773 245.884C574.755 245.867 579.164 242.18 581.376 237.716" stroke="black" stroke-width="1.01733" stroke-miterlimit="10"/>
<path d="M488.25 241.571C488.25 241.571 483.891 290.046 482.157 295.056C482.157 295.056 508.787 313.111 530.453 294.155C530.453 294.155 527.745 286.482 522.102 243.6L488.25 241.571Z" fill="#B7482C"/>
<path d="M488.25 241.571C488.25 241.571 483.891 290.046 482.157 295.056C482.157 295.056 508.787 313.111 530.453 294.155C530.453 294.155 527.745 286.482 522.102 243.6L488.25 241.571Z" stroke="#B7482C" stroke-width="2.61733" stroke-miterlimit="10"/>
<path d="M485.933 242.895C486.158 244.25 494.824 261.343 506.534 260.595C520.173 259.724 523.365 243.184 523.365 243.184L485.933 242.895Z" fill="black"/>
<path d="M469.219 227.335C467.244 227.335 465.591 226.419 464.306 224.61C462.246 221.711 461.751 217.21 462.58 214.823C463.064 213.434 463.979 212.787 465.459 212.787C466.987 212.787 468.611 213.484 469.324 213.831L472.608 226.56C471.402 227.075 470.263 227.335 469.219 227.335Z" fill="#B7482C"/>
<path d="M465.459 211.77C463.884 211.77 462.348 212.394 461.619 214.489C460.112 218.823 462.382 228.354 469.219 228.354C470.568 228.354 472.095 227.982 473.806 227.127L470.195 213.134C470.195 213.134 467.787 211.77 465.459 211.77ZM465.459 213.805C466.49 213.805 467.668 214.209 468.459 214.551L471.395 225.933C470.623 226.187 469.894 226.317 469.219 226.317C467.592 226.317 466.219 225.545 465.136 224.021C463.258 221.379 462.795 217.305 463.543 215.158C463.886 214.173 464.404 213.805 465.459 213.805Z" fill="#B7482C"/>
<path d="M470.195 221.033C470.195 221.033 465.005 211.104 464.102 218.552L470.195 221.033Z" fill="black"/>
<path d="M541.364 227.335C540.309 227.335 539.16 227.07 537.939 226.544L540.805 212.794C541.46 212.603 542.651 212.316 543.9 212.316C546.073 212.316 547.416 213.138 548.003 214.823C548.833 217.21 548.336 221.712 546.277 224.611C544.992 226.419 543.337 227.335 541.364 227.335Z" fill="#B7482C"/>
<path d="M543.901 211.3C541.817 211.3 539.93 212.005 539.93 212.005L536.777 227.127C538.489 227.983 540.015 228.353 541.366 228.353C548.202 228.353 550.473 218.824 548.965 214.489C548.081 211.948 545.899 211.3 543.901 211.3ZM543.901 213.336C546.123 213.336 546.746 214.309 547.041 215.159C547.789 217.305 547.326 221.38 545.447 224.021C544.365 225.545 542.99 226.317 541.366 226.317C540.667 226.317 539.914 226.18 539.111 225.907L541.674 213.617C542.277 213.476 543.078 213.336 543.901 213.336Z" fill="#B7482C"/>
<path d="M540.389 221.033C540.389 221.033 545.579 211.104 546.481 218.552L540.389 221.033Z" fill="black"/>
<path d="M503.181 172.317L503.185 172.316C539.029 172.288 539.627 187.122 541.046 207.802L541.285 211.556C541.737 231.866 519.243 251.796 507.115 251.6C496.873 251.434 470.787 236.765 469.369 216.084L469.014 212.37C467.595 191.69 465.457 170.933 503.181 172.317Z" fill="#B7482C"/>
<path d="M503.181 172.317L503.185 172.316C539.029 172.288 539.627 187.122 541.046 207.802L541.285 211.556C541.737 231.866 519.243 251.796 507.115 251.6C496.873 251.434 470.787 236.765 469.369 216.084L469.014 212.37C467.595 191.69 465.457 170.933 503.181 172.317Z" stroke="#B7482C" stroke-width="2.61733" stroke-miterlimit="10"/>
<path d="M509.558 222.537L505.679 222.446C505.201 222.434 506.853 207.105 507.097 207.712C507.097 207.712 510.057 222.549 509.558 222.537Z" fill="#93311B"/>
<path d="M532.709 224.644C532.709 221.154 529.88 218.325 526.39 218.325C522.901 218.325 520.07 221.154 520.07 224.644C520.07 228.134 522.901 230.962 526.39 230.962C529.88 230.962 532.709 228.134 532.709 224.644Z" fill="#D76445"/>
<path d="M493.892 224.644C493.892 221.154 491.063 218.325 487.573 218.325C484.083 218.325 481.253 221.154 481.253 224.644C481.253 228.134 484.083 230.962 487.573 230.962C491.063 230.962 493.892 228.134 493.892 224.644Z" fill="#D76445"/>
<path d="M498.619 224.736C498.619 224.736 500.517 229.643 507.639 229.324C514.919 229.001 515.868 224.577 515.868 224.577" stroke="black" stroke-width="0.713333" stroke-miterlimit="10" stroke-linecap="round"/>
<path d="M522.175 207.025C523.753 208.013 521.151 203.279 519.047 202.856C516.942 202.435 514.93 203.615 514.553 205.496C514.553 205.496 518.386 204.651 522.175 207.025Z" fill="black"/>
<path d="M491.013 207.336C489.424 208.291 493.496 203.278 495.604 202.872C497.712 202.468 500.329 204.502 500.68 206.322C500.68 206.322 494.83 205.044 491.013 207.336Z" fill="black"/>
<path d="M493.914 215.567C493.914 215.567 497.07 218.865 499.938 215.567" stroke="black" stroke-width="0.713333" stroke-miterlimit="10" stroke-linecap="round"/>
<path d="M520.162 215.567C520.162 215.567 517.008 218.865 514.138 215.567" stroke="black" stroke-width="0.713333" stroke-miterlimit="10" stroke-linecap="round"/>
<path d="M467.362 211.845C470.782 211.845 481.001 217.069 482.741 202.56C483.758 194.083 490.898 195.775 497.25 193.856C507.737 190.685 509.727 167.159 503.634 163.387C478.698 147.951 441.877 211.845 467.362 211.845Z" fill="black"/>
<path d="M493.238 170.929C493.238 170.929 505.955 168.901 509.436 182.538C512.187 193.307 524.923 188.934 526.556 193.566C533.522 213.297 548.923 220.281 545.418 197.627C545.418 197.627 535.566 140.769 493.238 170.929Z" fill="black"/>
<path d="M450.11 364.34L466.134 449.423L559.564 447.616L565.884 360.504L569.946 305.438C569.946 305.438 543.098 293.384 525.488 278.018C517.024 278.356 486.896 277.002 486.896 277.002C486.896 277.002 487.384 286.42 447.34 301.51L450.11 364.34Z" fill="#B7482C"/>
<path d="M450.11 364.34L466.134 449.423L559.564 447.616L565.884 360.504L569.946 305.438C569.946 305.438 543.098 293.384 525.488 278.018C517.024 278.356 486.896 277.002 486.896 277.002C486.896 277.002 487.384 286.42 447.34 301.51L450.11 364.34Z" stroke="#B7482C" stroke-width="2.61733" stroke-miterlimit="10"/>
<path d="M423.546 323.562C409.618 344.455 377.118 385.079 377.118 385.079C364.908 384 307.679 312.751 307.679 312.751C307.679 312.751 325.218 305.371 319.304 290.374C316.615 283.554 314.314 285.05 313.49 287.93C312.499 291.384 313.102 297.262 310.58 299.012C305.954 302.223 301.532 300.386 302.294 291.767C303.054 283.148 316.235 289.62 315.242 284.467C308.047 278.523 295.175 274.008 295.16 285.106C295.154 290.736 278.115 255.123 274.398 256.243C270.679 257.362 286.683 288.216 282.818 282.81C278.952 277.402 272.45 261.266 270.335 264.367C267.738 268.176 279.998 291.567 278.46 288.162C276.643 284.142 266.268 272.102 263.371 275.394C260.664 278.467 336.352 425.578 375.958 444.274C409.618 450.078 459.527 361.866 459.527 361.866" fill="#B7482C"/>
<path d="M426.417 410.161C445.039 387.453 459.527 361.865 459.527 361.865L423.545 323.563C418.169 331.626 410.028 342.627 402.056 353.098C410.343 372.047 418.3 391.138 426.417 410.161Z" fill="black"/>
<path d="M591.776 323.562C605.704 344.455 638.202 385.079 638.202 385.079C650.413 384 707.642 312.751 707.642 312.751C707.642 312.751 690.102 305.371 696.017 290.374C698.705 283.554 701.008 285.05 701.832 287.93C702.821 291.384 702.218 297.262 704.741 299.012C709.366 302.223 713.789 300.386 713.028 291.767C712.266 283.148 699.086 289.62 700.08 284.467C707.274 278.523 720.145 274.008 720.16 285.106C720.168 290.736 737.205 255.123 740.924 256.243C744.641 257.362 728.637 288.216 732.504 282.81C736.368 277.402 742.872 261.266 744.986 264.367C747.582 268.176 735.322 291.567 736.861 288.162C738.678 284.142 749.052 272.102 751.95 275.394C754.657 278.467 673.236 426.158 633.632 444.855C599.97 450.658 555.864 356.062 555.864 356.062" fill="#B7482C"/>
<path d="M587.783 410.614C569.162 387.906 559.926 353.159 559.926 353.159L591.775 323.563C597.15 331.626 605.293 342.627 613.265 353.098C604.978 372.047 595.901 391.591 587.783 410.614Z" fill="black"/>
<path d="M479.259 282.359C479.259 282.359 508.276 331.108 533.811 281.197C533.811 281.197 555.025 288.565 574.492 297.219C593.959 305.869 617.064 351.249 642.945 384.033L614.475 447.012L570.888 384.457L572.329 442.136H454.808L449.761 385.177L395.341 446.151L373.773 382.308C373.773 382.308 420.201 302.265 438.225 297.219C456.251 292.171 479.259 282.359 479.259 282.359Z" fill="#211C33"/>
<path d="M496.897 308.286L502.88 293.08C503.4 291.756 504.785 290.984 506.184 291.24C507.128 291.412 507.933 292.028 508.343 292.895L515.348 307.683C516.267 309.62 514.896 311.866 512.752 311.934L499.765 312.354C497.625 312.423 496.113 310.278 496.897 308.286Z" fill="#E4E2E3"/>
<path d="M471.408 286.533L483.502 270.172L504.843 290.801L495.24 321.392C495.24 321.392 471.408 287.245 471.408 286.533Z" fill="white"/>
<path d="M539.701 282.977L528.319 269.105L506.267 290.801L515.869 319.613C515.869 319.613 539.701 283.688 539.701 282.977Z" fill="white"/>
<mask id="mask12_2_9" style="mask-type:luminance" maskUnits="userSpaceOnUse" x="450" y="385" width="69" height="58">
<path d="M450.261 385.245H518.476V442.495H450.261V385.245Z" fill="white"/>
</mask>
<g mask="url(#mask12_2_9)">
<g opacity="0.429993">
<path d="M450.261 385.245L518.475 441.976L455.573 442.496L450.261 385.245Z" fill="#609FA3"/>
</g>
</g>
<mask id="mask13_2_9" style="mask-type:luminance" maskUnits="userSpaceOnUse" x="564" y="348" width="63" height="100">
<path d="M564.295 348.333H626.445V447.552H564.295V348.333Z" fill="white"/>
</mask>
<g mask="url(#mask13_2_9)">
<g opacity="0.429993">
<path d="M614.475 447.551L626.447 420.375L564.293 348.333L571.387 384.525L614.475 447.551Z" fill="#433A61"/>
</g>
</g>
<path d="M457.117 443.072L398.136 512.516C384.007 545.661 442.46 568.479 476.656 568.479H551.177C585.612 568.479 625.195 531.487 610.603 498.288L569.481 441.911L457.117 443.072Z" fill="#246E5C"/>
<path d="M355.087 575.744L401.844 579.564L415.115 537.869L351.577 547.733L355.087 575.744Z" fill="#B7482C"/>
<path d="M415.114 537.869L411.383 549.508L352.674 557.79L351.577 547.733L415.114 537.869Z" fill="black" fill-opacity="0.4"/>
<path d="M355.725 577.054C355.725 577.054 294.462 593.818 293.598 593.203C293.079 592.835 315.095 562.733 332.753 538.761C334.691 536.131 347.265 541.926 349.062 539.491C350.174 537.983 340.563 528.171 341.599 526.767C349.026 516.713 347.33 519.185 347.33 519.185L375.47 544.154C375.47 544.154 362.333 545.918 359.895 548.366C354.215 554.077 355.725 577.054 355.725 577.054Z" fill="#FFC994"/>
<path d="M689.548 523.929C678.662 554.954 622.32 564.79 590.112 571.399C518.96 585.998 445.433 592.137 373.549 581.721C376.338 562.882 378.804 548.509 379.716 529.215C447.132 509.919 511.026 490.325 565.337 479.077C581.272 475.777 625.602 463.581 654.624 465.673C675.286 467.162 698.989 497.018 689.548 523.929Z" fill="#933475"/>
<path d="M514.928 490.997C474.6 501.459 430.68 514.578 385.067 527.677C398.064 547.065 410.64 566.734 423.309 586.338C479.095 588.831 535.307 582.643 590.112 571.399C622.32 564.791 678.663 554.954 689.548 523.929C689.604 523.767 689.645 523.605 689.699 523.443C631.717 511.371 573.032 502.525 514.928 490.997Z" fill="black" fill-opacity="0.4"/>
<mask id="mask14_2_9" style="mask-type:luminance" maskUnits="userSpaceOnUse" x="391" y="529" width="5" height="55">
<path d="M391.168 529.536H395.491V583.116H391.168V529.536Z" fill="white"/>
</mask>
<g mask="url(#mask14_2_9)">
<g opacity="0.520004">
<path d="M395.134 529.559L391.524 583.091" stroke="white" stroke-width="0.713333" stroke-miterlimit="10"/>
</g>
</g>
<path d="M667.855 576.736L621.058 580.029L608.259 538.187L671.68 548.767L667.855 576.736Z" fill="#B7482C"/>
<path d="M608.259 538.187L611.857 549.868L670.469 558.812L671.68 548.768L608.259 538.187Z" fill="black" fill-opacity="0.4"/>
<path d="M667.203 578.039C667.203 578.039 728.272 595.494 729.143 594.89C729.667 594.526 707.991 564.178 690.605 540.009C688.696 537.355 676.059 543.01 674.288 540.554C673.193 539.034 682.913 529.33 681.895 527.915C674.581 517.778 676.249 520.269 676.249 520.269L647.829 544.919C647.829 544.919 660.947 546.833 663.355 549.306C668.971 555.081 667.203 578.039 667.203 578.039Z" fill="#FFC994"/>
<path d="M334 521.151C344.535 552.297 400.763 562.769 432.895 569.739C503.877 585.141 577.331 592.11 649.327 582.505C646.749 563.635 644.445 549.235 643.752 529.933C576.557 509.878 512.888 489.565 458.709 477.703C442.812 474.223 398.621 461.527 369.58 463.291C348.901 464.549 324.863 494.135 334 521.151Z" fill="#933475"/>
<mask id="mask15_2_9" style="mask-type:luminance" maskUnits="userSpaceOnUse" x="627" y="525" width="5" height="59">
<path d="M627.403 525.72H631.693V583.695H627.403V525.72Z" fill="white"/>
</mask>
<g mask="url(#mask15_2_9)">
<g opacity="0.520004">
<path d="M627.759 525.743L631.337 583.672" stroke="white" stroke-width="0.713333" stroke-miterlimit="10"/>
</g>
</g>
<path d="M129.277 848.451C123.507 848.451 119.077 843.336 119.901 837.624L167.921 505.048H221.176L138.476 841.242C137.435 845.476 133.637 848.451 129.277 848.451Z" fill="#E5785C"/>
<path d="M209.651 551.901L221.176 505.048H167.921L166.429 515.383C181.029 527.331 195.411 539.533 209.651 551.901Z" fill="black" fill-opacity="0.4"/>
<path d="M885.653 848.451C891.424 848.451 895.853 843.336 895.028 837.624L847.011 505.048H793.755L876.456 841.242C877.496 845.476 881.292 848.451 885.653 848.451Z" fill="#E5785C"/>
<path d="M848.174 513.112L847.01 505.048H793.755L805.438 552.544C819.559 539.267 833.786 526.103 848.174 513.112Z" fill="black" fill-opacity="0.4"/>
<path d="M872.152 523.525H127.848V501.692H872.152V523.525Z" fill="#B3513D"/>
<path d="M912.88 507.103H87.1213V482.88H912.88V507.103Z" fill="#E5785C"/>
<path d="M148.403 447.157H279.68V483.691H148.403V447.157Z" fill="#FFC994"/>
<path d="M177.744 475.572C183.246 475.572 187.706 471.256 187.706 465.932C187.706 460.605 183.246 456.289 177.744 456.289C172.243 456.289 167.782 460.605 167.782 465.932C167.782 471.256 172.243 475.572 177.744 475.572Z" fill="#FBF9F6"/>
<path d="M177.744 475.572C183.246 475.572 187.706 471.256 187.706 465.932C187.706 460.605 183.246 456.289 177.744 456.289C172.243 456.289 167.782 460.605 167.782 465.932C167.782 471.256 172.243 475.572 177.744 475.572Z" stroke="#FBF9F6" stroke-width="0.776" stroke-miterlimit="10"/>
<path d="M205.508 455.471H264.461V475.888H205.508V455.471Z" fill="#FFDDB8"/>
<path d="M134.931 414.056H266.209V450.589H134.931V414.056Z" fill="#2B818C"/>
<path d="M164.273 442.472C169.774 442.472 174.234 438.156 174.234 432.832C174.234 427.505 169.774 423.189 164.273 423.189C158.772 423.189 154.31 427.505 154.31 432.832C154.31 438.156 158.772 442.472 164.273 442.472Z" fill="#FBF9F6"/>
<path d="M164.273 442.472C169.774 442.472 174.234 438.156 174.234 432.832C174.234 427.505 169.774 423.189 164.273 423.189C158.772 423.189 154.31 427.505 154.31 432.832C154.31 438.156 158.772 442.472 164.273 442.472Z" stroke="#FBF9F6" stroke-width="0.776" stroke-miterlimit="10"/>
<path d="M192.036 422.371H250.989V442.788H192.036V422.371Z" fill="#FBF9F6" stroke="#FBF9F6" stroke-width="0.776" stroke-miterlimit="10"/>
<path d="M155.725 378.935H287.004V415.467H155.725V378.935Z" fill="#990069"/>
<path d="M185.067 407.348C190.568 407.348 195.028 403.032 195.028 397.708C195.028 392.383 190.568 388.067 185.067 388.067C179.565 388.067 175.104 392.383 175.104 397.708C175.104 403.032 179.565 407.348 185.067 407.348Z" fill="#FBF9F6"/>
<path d="M185.067 407.348C190.568 407.348 195.028 403.032 195.028 397.708C195.028 392.383 190.568 388.067 185.067 388.067C179.565 388.067 175.104 392.383 175.104 397.708C175.104 403.032 179.565 407.348 185.067 407.348Z" stroke="#FBF9F6" stroke-width="0.776" stroke-miterlimit="10"/>
<path d="M212.829 387.248H271.783V407.664H212.829V387.248Z" fill="#FBF9F6" stroke="#FBF9F6" stroke-width="0.776" stroke-miterlimit="10"/>
<path d="M283.385 461.816C283.385 452.593 290.886 445.089 300.108 445.089C303.188 445.089 306.149 445.96 308.76 447.546V465.637C308.76 468.832 309.617 471.82 311.096 474.406C308.048 477.066 304.166 478.541 300.108 478.541C290.886 478.541 283.385 471.037 283.385 461.816ZM281.372 461.816C281.372 472.148 289.777 480.552 300.108 480.552C304.561 480.552 308.821 478.965 312.202 476.1C315.426 480.488 320.608 483.348 326.469 483.348H346.508C356.29 483.348 364.218 475.42 364.218 465.637V428.114H308.76V445.233C306.096 443.842 303.153 443.078 300.108 443.078C289.777 443.078 281.372 451.485 281.372 461.816Z" fill="#FFC994"/>
<mask id="mask16_2_9" style="mask-type:luminance" maskUnits="userSpaceOnUse" x="281" y="430" width="84" height="54">
<path d="M281.372 430.688H364.219V483.348H281.372V430.688Z" fill="white"/>
</mask>
<g mask="url(#mask16_2_9)">
<g opacity="0.429993">
<path d="M300.108 443.079C300.195 443.079 300.28 443.093 300.368 443.095C300.442 443.775 300.524 444.452 300.618 445.125C300.447 445.12 300.28 445.089 300.108 445.089C290.887 445.089 283.386 452.593 283.386 461.816C283.386 471.037 290.887 478.541 300.108 478.541C304.167 478.541 308.047 477.067 311.096 474.407C309.616 471.821 308.759 468.831 308.759 465.637V465.397C310.724 467.657 313.091 469.647 315.974 471.264C329.584 478.904 344.339 472.723 352.936 460.9C359.486 451.892 363.216 441.468 364.219 430.688V465.637C364.219 475.42 356.29 483.348 346.508 483.348H326.47C320.608 483.348 315.426 480.488 312.203 476.1C308.82 478.965 304.562 480.551 300.108 480.551C289.778 480.551 281.372 472.149 281.372 461.816C281.372 451.485 289.778 443.079 300.108 443.079Z" fill="black" fill-opacity="0.2"/>
</g>
</g>
<path d="M341.179 421.701C340.356 424.768 336.287 425.848 334.359 423.326C334.235 423.165 334.123 422.994 334.024 422.814C332.389 419.838 334.464 416.041 333.525 412.778C333.211 411.685 332.573 410.72 332.064 409.704C330.364 406.316 330.121 402.154 331.725 398.721C333.329 395.286 336.852 392.744 340.64 392.618C344.428 392.494 348.243 394.98 349.377 398.596C350.272 401.445 349.539 404.545 348.499 407.344C347.423 410.24 346.019 413.014 344.324 415.598C344.324 415.598 341.373 419.236 341.292 421.005C341.283 421.232 341.241 421.465 341.179 421.701Z" fill="#50350D"/>
<path d="M346.808 424.165C347.819 424.013 348.873 423.842 349.697 423.237C350.521 422.631 351.015 421.445 350.511 420.555C350.093 419.818 349.119 419.531 348.292 419.714C347.465 419.897 346.769 420.457 346.196 421.081C345.476 421.859 344.964 423.249 345.837 423.85" fill="#50350D"/>
<path d="M330.414 396.369C331.836 395.12 333.174 393.774 334.414 392.344C335.026 391.64 335.632 390.597 335.069 389.853C334.776 389.466 334.258 389.329 333.776 389.289C331.913 389.138 330.006 390.184 329.133 391.837C328.258 393.489 328.468 395.653 329.64 397.109" fill="#50350D"/>
<path d="M659.24 483.137H621.451C621.451 476.2 627.075 470.576 634.012 470.576H646.679C653.616 470.576 659.24 476.2 659.24 483.137Z" fill="white"/>
<path d="M585.217 473.366C589.462 475.921 594.861 476.662 598.434 480.282C602.456 484.357 599.781 489.794 600.518 494.762C601.188 499.281 603.678 503.304 606.525 506.781C609.534 510.452 613.088 513.812 617.158 516.282C624.289 520.613 632.78 521.364 640.388 517.782C647.194 514.576 652.172 508.074 652.325 500.41C652.489 492.286 647.653 484.085 639.765 481.469C638.92 481.189 638.558 482.521 639.398 482.8C646.494 485.153 650.854 492.494 650.949 499.774C651.049 507.461 645.965 513.89 639.076 516.869C631.269 520.245 622.882 518.706 616.044 513.904C612.308 511.282 608.965 507.894 606.268 504.216C603.57 500.534 601.524 496.252 601.729 491.593C601.842 489.005 602.513 486.414 601.962 483.832C601.558 481.938 600.464 480.277 599.061 478.966C595.361 475.517 590.149 474.724 585.913 472.174C585.15 471.716 584.456 472.909 585.217 473.366Z" fill="white"/>
<path d="M871.867 483.011H746.993V460.975H871.867V483.011Z" fill="#990069"/>
<path d="M857.285 483.011H839.76V460.975H857.285V483.011Z" fill="#FFC994"/>
<path d="M830.855 460.975H705.981V445.059H830.855V460.975Z" fill="#2B818C"/>
<path d="M816.273 460.975H798.749V445.059H816.273V460.975Z" fill="#211C33"/>
<path d="M720.755 411.799C714.031 406.104 707.88 399.56 703.713 391.797C699.545 384.033 697.471 374.943 699.095 366.283C699.312 365.125 699.679 363.857 700.689 363.253C701.436 362.808 702.368 362.832 703.225 362.968C708.664 363.82 712.729 368.251 716.332 372.413C724.816 382.217 733.656 392.777 735.511 405.609C736.103 409.699 735.3 414.859 731.421 416.275C728.151 417.471 724.663 415.228 722.157 412.811" fill="#439C86"/>
<path d="M710.395 415.817C706.314 422.754 692.663 409.314 689.602 401.522C689.194 400.481 688.911 399.293 689.339 398.259C690.307 395.931 693.726 396.262 696.017 397.314C702.233 400.17 707.314 405.411 709.977 411.713C710.573 413.125 711.713 415.013 710.191 415.205" fill="#439C86"/>
<path d="M747.938 416.226C740.797 418.266 741.858 378.606 745.378 360.195C746.365 355.03 748.18 349.26 752.958 347.067C756.298 345.532 760.389 346.268 763.424 348.342C766.46 350.415 768.538 353.652 769.888 357.071C771.768 361.831 772.306 367.407 769.973 371.96C768.909 374.036 767.304 375.803 766.273 377.896C763.744 383.035 765.046 389.143 764.512 394.846C763.617 404.38 756.961 413.144 748.016 416.566" fill="#439C87"/>
<path d="M726.514 369.908C723.407 365.476 722.946 363.611 721.918 358.297C721.31 355.153 721.454 351.201 724.247 349.633C727.263 347.94 730.954 350.36 733.151 353.032C736.684 357.331 738.948 362.661 739.588 368.192C740.024 371.973 739.174 376.627 735.632 378.021C732.346 379.317 726.514 369.908 726.514 369.908Z" fill="#439C86"/>
<path d="M765.69 420.511C761.608 418.266 766.54 407.831 769.162 403.312C770.664 400.718 772.34 398.056 774.935 396.552C777.53 395.05 781.303 395.15 783.088 397.559C783.782 398.495 784.1 399.652 784.351 400.792C785.287 405.028 785.4 409.771 782.982 413.372C781.278 415.908 778.543 417.542 775.812 418.911C773.995 419.82 773.435 423.556 771.403 423.571C769.372 423.586 766.848 422.807 766.099 420.919" fill="#439C86"/>
<path d="M698.365 404.14C711.667 415.418 723.208 428.768 732.447 443.557" stroke="black" stroke-width="0.92" stroke-miterlimit="10" stroke-linecap="round"/>
<path d="M709.678 376.308C726.013 399.208 738.742 424.673 747.253 451.484" stroke="black" stroke-width="0.92" stroke-miterlimit="10" stroke-linecap="round"/>
<path d="M730.277 359.614C739.822 390.074 744.511 422.048 744.113 453.967" stroke="black" stroke-width="0.92" stroke-miterlimit="10" stroke-linecap="round"/>
<path d="M757.846 372.036C750.44 398.914 746.364 426.709 745.742 454.582" stroke="black" stroke-width="0.92" stroke-miterlimit="10" stroke-linecap="round"/>
<path d="M777.713 406.214C765.741 420.465 755.378 436.066 746.885 452.627" stroke="black" stroke-width="0.92" stroke-miterlimit="10" stroke-linecap="round"/>
<path d="M759.45 483.529H726.225C720.038 483.529 715.023 478.513 715.023 472.328V427.402H770.651V472.328C770.651 478.513 765.638 483.529 759.45 483.529Z" fill="#FFC994"/>
<mask id="mask17_2_9" style="mask-type:luminance" maskUnits="userSpaceOnUse" x="715" y="427" width="56" height="57">
<path d="M715.023 427.403H770.652V483.529H715.023V427.403Z" fill="white"/>
<path d="M715.023 427.403H770.652V483.529H715.023V427.403Z" fill="white"/>
</mask>
<g mask="url(#mask17_2_9)">
<g opacity="0.429993">
<path d="M770.652 427.403V472.327C770.652 478.513 765.637 483.529 759.451 483.529H726.225C720.039 483.529 715.023 478.513 715.023 472.327" fill="black" fill-opacity="0.27"/>
</g>
</g>
<path d="M430.487 482.524H589.741L591.661 392.756C592.202 385.384 586.366 379.105 578.974 379.105H435.87C428.175 379.105 422.242 385.883 423.259 393.509L430.487 482.524Z" fill="white"/>
<path d="M512.057 439.308C506.857 439.308 502.641 435.093 502.641 429.892C502.641 428.51 502.957 427.209 503.491 426.026C500.031 427.418 497.585 430.792 497.585 434.749C497.585 439.949 501.799 444.165 506.998 444.165C510.815 444.165 514.086 441.882 515.565 438.616C514.478 439.054 513.299 439.308 512.057 439.308Z" fill="black"/>
</g>
<defs>
<clipPath id="clip0_2_9">
<rect width="1000" height="666.667" fill="white"/>
</clipPath>
</defs>
</svg>
