<svg width="108" height="101" viewBox="0 0 108 101" fill="none" xmlns="http://www.w3.org/2000/svg">
<rect width="108" height="101" rx="10" fill="#462C78"/>
<rect x="19" y="22.7283" width="32.7174" height="13.6957" rx="5" fill="#FFCE34"/>
<rect x="56.2826" y="22.7283" width="32.7174" height="13.6957" rx="5" fill="#FFCE34"/>
<path fill-rule="evenodd" clip-rule="evenodd" d="M58.3274 39.4674C57.1981 39.4674 56.2826 40.4894 56.2826 41.75V75.9891C56.2826 77.2498 57.1981 78.2718 58.3274 78.2718H86.9551C88.0845 78.2718 89 77.2498 89 75.9891V41.75C89 40.4894 88.0845 39.4674 86.9551 39.4674H58.3274ZM72.6413 48.5978C74.1471 48.5978 75.3677 47.2353 75.3677 45.5544C75.3677 43.8735 74.1471 42.5109 72.6413 42.5109C71.1355 42.5109 69.9148 43.8735 69.9148 45.5544C69.9148 47.2353 71.1355 48.5978 72.6413 48.5978Z" fill="#F778AC"/>
<path fill-rule="evenodd" clip-rule="evenodd" d="M21.0448 39.4674C19.9155 39.4674 19 40.4894 19 41.75V75.9891C19 77.2498 19.9155 78.2718 21.0448 78.2718H49.6726C50.8019 78.2718 51.7174 77.2498 51.7174 75.9891V41.75C51.7174 40.4894 50.8019 39.4674 49.6726 39.4674H21.0448ZM35.3587 48.5978C36.8645 48.5978 38.0851 47.2353 38.0851 45.5544C38.0851 43.8735 36.8645 42.5109 35.3587 42.5109C33.8529 42.5109 32.6322 43.8735 32.6322 45.5544C32.6322 47.2353 33.8529 48.5978 35.3587 48.5978Z" fill="#F778AC"/>
</svg>
