<svg width="122" height="122" viewBox="0 0 122 122" fill="none" xmlns="http://www.w3.org/2000/svg">
<circle cx="61" cy="61" r="61" fill="#FF808C"/>
<path fill-rule="evenodd" clip-rule="evenodd" d="M32.756 81.517C30.4147 83.8583 30.4147 87.6543 32.756 89.9956C35.0973 92.3369 38.8933 92.3369 41.2346 89.9956L61.664 69.5663L82.517 90.4193C84.8583 92.7606 88.6544 92.7606 90.9957 90.4193C93.337 88.078 93.337 84.282 90.9957 81.9407L70.1426 61.0876L90.9956 40.2346C93.3369 37.8933 93.3369 34.0973 90.9956 31.756C88.6543 29.4147 84.8583 29.4147 82.517 31.756L61.664 52.609L41.2347 32.1797C38.8934 29.8384 35.0973 29.8384 32.756 32.1797C30.4147 34.521 30.4147 38.317 32.756 40.6583L53.1853 61.0876L32.756 81.517Z" fill="white"/>
</svg>
