<svg width="398" height="101" viewBox="0 0 398 101" fill="none" xmlns="http://www.w3.org/2000/svg">
<rect width="108" height="101" rx="10" fill="white"/>
<rect x="17" y="21" width="35" height="15" rx="5" fill="#FFCE34"/>
<rect x="56" y="21" width="35" height="15" rx="5" fill="#FFCE34"/>
<path fill-rule="evenodd" clip-rule="evenodd" d="M58.1875 39C56.9794 39 56 40.0798 56 41.4118V77.5882C56 78.9202 56.9794 80 58.1875 80H88.8125C90.0206 80 91 78.9202 91 77.5882V41.4118C91 40.0798 90.0206 39 88.8125 39H58.1875ZM73.5 48.6471C75.1109 48.6471 76.4167 47.2074 76.4167 45.4314C76.4167 43.6554 75.1109 42.2157 73.5 42.2157C71.8891 42.2157 70.5833 43.6554 70.5833 45.4314C70.5833 47.2074 71.8891 48.6471 73.5 48.6471Z" fill="#F778AC"/>
<path fill-rule="evenodd" clip-rule="evenodd" d="M19.1875 39C17.9794 39 17 40.0798 17 41.4118V77.5882C17 78.9202 17.9794 80 19.1875 80H49.8125C51.0206 80 52 78.9202 52 77.5882V41.4118C52 40.0798 51.0206 39 49.8125 39H19.1875ZM34.5 48.6471C36.1109 48.6471 37.4167 47.2074 37.4167 45.4314C37.4167 43.6554 36.1109 42.2157 34.5 42.2157C32.8891 42.2157 31.5833 43.6554 31.5833 45.4314C31.5833 47.2074 32.8891 48.6471 34.5 48.6471Z" fill="#F778AC"/>
<path d="M159.21 74H147.31V57.55H139.12V74H127.08V30.53H139.12V47.61H147.31V30.53H159.21V74ZM187.208 49.64C185.994 49.64 185.201 50.06 184.828 50.9C184.454 51.6933 184.268 52.93 184.268 54.61H190.358V52.93C190.358 50.7367 189.308 49.64 187.208 49.64ZM187.488 39.63C192.294 39.63 195.724 40.7967 197.778 43.13C199.878 45.4167 200.928 48.7067 200.928 53C200.928 53.56 200.764 56.08 200.438 60.56H184.478C184.478 64.06 186.088 65.81 189.308 65.81C190.848 65.81 193.858 65.2733 198.338 64.2L199.318 72.88C195.398 74.0933 191.478 74.7 187.558 74.7C182.751 74.7 179.064 73.1367 176.498 70.01C173.931 66.8367 172.648 62.5433 172.648 57.13C172.648 45.4633 177.594 39.63 187.488 39.63ZM224.895 55.17V74H213.275V40.47H223.495L224.195 42.5H224.475C225.548 41.2867 226.621 40.5167 227.695 40.19C228.815 39.8167 230.611 39.63 233.085 39.63L232.595 50.83H229.375C227.555 50.83 226.341 51.11 225.735 51.67C225.175 52.23 224.895 53.3967 224.895 55.17ZM272.738 42.92C275.305 40.7267 278.128 39.63 281.208 39.63C284.288 39.63 286.435 40.3533 287.648 41.8C288.908 43.2 289.538 45.3233 289.538 48.17V74H277.638V52.16C277.638 50.9933 277.125 50.41 276.098 50.41C274.791 50.41 273.695 50.7367 272.808 51.39V74H260.908V52.16C260.908 50.9933 260.395 50.41 259.368 50.41C258.061 50.41 256.965 50.7367 256.078 51.39V74H244.318V40.47H255.028L255.728 42.92H256.008C258.575 40.7267 261.608 39.63 265.108 39.63C268.655 39.63 270.965 40.9367 272.038 43.55L272.738 42.92ZM316.842 49.64C315.628 49.64 314.835 50.06 314.462 50.9C314.088 51.6933 313.902 52.93 313.902 54.61H319.992V52.93C319.992 50.7367 318.942 49.64 316.842 49.64ZM317.122 39.63C321.928 39.63 325.358 40.7967 327.412 43.13C329.512 45.4167 330.562 48.7067 330.562 53C330.562 53.56 330.398 56.08 330.072 60.56H314.112C314.112 64.06 315.722 65.81 318.942 65.81C320.482 65.81 323.492 65.2733 327.972 64.2L328.952 72.88C325.032 74.0933 321.112 74.7 317.192 74.7C312.385 74.7 308.698 73.1367 306.132 70.01C303.565 66.8367 302.282 62.5433 302.282 57.13C302.282 45.4633 307.228 39.63 317.122 39.63ZM341.089 50.41C341.089 47.0033 342.115 44.3667 344.169 42.5C346.269 40.5867 349.139 39.63 352.779 39.63C356.419 39.63 360.105 40.0967 363.839 41.03L362.649 50.76C357.889 49.6867 354.692 49.15 353.059 49.15C352.079 49.15 351.589 49.5467 351.589 50.34C351.589 50.8533 352.125 51.32 353.199 51.74C356.932 53.0933 359.732 54.6333 361.599 56.36C363.512 58.0867 364.469 60.6767 364.469 64.13C364.469 67.5833 363.582 70.22 361.809 72.04C360.035 73.8133 357.305 74.7 353.619 74.7C349.979 74.7 346.339 74.2333 342.699 73.3L343.469 63.85C348.135 65.11 351.145 65.74 352.499 65.74C353.899 65.74 354.599 65.4133 354.599 64.76C354.599 64.1067 354.085 63.5933 353.059 63.22C348.905 61.6333 345.872 59.9533 343.959 58.18C342.045 56.36 341.089 53.77 341.089 50.41Z" fill="#462C78"/>
</svg>
