<svg width="398" height="101" viewBox="0 0 398 101" fill="none" xmlns="http://www.w3.org/2000/svg">
<rect width="108" height="101" rx="10" fill="#462C78"/>
<rect x="19" y="22.7283" width="32.7174" height="13.6957" rx="5" fill="#FFCE34"/>
<rect x="56.2826" y="22.7283" width="32.7174" height="13.6957" rx="5" fill="#FFCE34"/>
<path fill-rule="evenodd" clip-rule="evenodd" d="M58.3274 39.4674C57.1981 39.4674 56.2826 40.4894 56.2826 41.75V75.9891C56.2826 77.2498 57.1981 78.2718 58.3274 78.2718H86.9551C88.0845 78.2718 89 77.2498 89 75.9891V41.75C89 40.4894 88.0845 39.4674 86.9551 39.4674H58.3274ZM72.6413 48.5978C74.1471 48.5978 75.3677 47.2353 75.3677 45.5544C75.3677 43.8735 74.1471 42.5109 72.6413 42.5109C71.1355 42.5109 69.9148 43.8735 69.9148 45.5544C69.9148 47.2353 71.1355 48.5978 72.6413 48.5978Z" fill="#F778AC"/>
<path fill-rule="evenodd" clip-rule="evenodd" d="M21.0448 39.4674C19.9155 39.4674 19 40.4894 19 41.75V75.9891C19 77.2498 19.9155 78.2718 21.0448 78.2718H49.6726C50.8019 78.2718 51.7174 77.2498 51.7174 75.9891V41.75C51.7174 40.4894 50.8019 39.4674 49.6726 39.4674H21.0448ZM35.3587 48.5978C36.8645 48.5978 38.0851 47.2353 38.0851 45.5544C38.0851 43.8735 36.8645 42.5109 35.3587 42.5109C33.8529 42.5109 32.6322 43.8735 32.6322 45.5544C32.6322 47.2353 33.8529 48.5978 35.3587 48.5978Z" fill="#F778AC"/>
<path d="M127.08 77C126.893 77 126.8 76.8833 126.8 76.65L126.87 28.56C126.87 28.3733 126.987 28.28 127.22 28.28H134.99C135.223 28.28 135.34 28.3733 135.34 28.56L135.27 47.6H145.77V28.56C145.77 28.3733 145.863 28.28 146.05 28.28H153.82C154.053 28.28 154.17 28.3733 154.17 28.56L154.31 76.65C154.31 76.8833 154.193 77 153.96 77H146.12C145.887 77 145.77 76.8833 145.77 76.65V56.07H135.27V76.65C135.27 76.8833 135.177 77 134.99 77H127.08ZM166.603 77C166.416 77 166.323 76.8833 166.323 76.65L166.393 28.56C166.393 28.3733 166.486 28.28 166.673 28.28H189.143C189.329 28.28 189.423 28.3967 189.423 28.63V36.47C189.423 36.6567 189.329 36.75 189.143 36.75H174.793V47.67H189.143C189.329 47.67 189.423 47.7633 189.423 47.95L189.493 55.86C189.493 56.0467 189.399 56.14 189.213 56.14H174.793V68.39H189.213C189.399 68.39 189.493 68.5067 189.493 68.74V76.72C189.493 76.9067 189.399 77 189.213 77H166.603ZM202.297 77C202.111 77 202.017 76.8833 202.017 76.65L202.157 28.56C202.157 28.3733 202.251 28.28 202.437 28.28H216.577C219.097 28.28 221.407 28.91 223.507 30.17C225.654 31.3833 227.357 33.04 228.617 35.14C229.877 37.1933 230.507 39.5267 230.507 42.14C230.507 43.8667 230.251 45.43 229.737 46.83C229.224 48.1833 228.617 49.35 227.917 50.33C227.217 51.2633 226.587 51.9633 226.027 52.43C228.547 55.23 229.807 58.52 229.807 62.3L229.877 76.65C229.877 76.8833 229.761 77 229.527 77H221.617C221.431 77 221.337 76.93 221.337 76.79V62.3C221.337 60.62 220.731 59.1733 219.517 57.96C218.351 56.7 216.904 56.07 215.177 56.07H210.557L210.487 76.65C210.487 76.8833 210.394 77 210.207 77H202.297ZM210.557 47.67H216.577C218.024 47.67 219.307 47.1333 220.427 46.06C221.547 44.9867 222.107 43.68 222.107 42.14C222.107 40.6467 221.547 39.3633 220.427 38.29C219.354 37.2167 218.071 36.68 216.577 36.68H210.557V47.67ZM242.367 77C242.18 77 242.087 76.8833 242.087 76.65L242.227 28.56C242.227 28.3733 242.32 28.28 242.507 28.28H251.047C251.233 28.28 251.397 28.3733 251.537 28.56L257.907 37.8L264.277 28.56C264.417 28.3733 264.58 28.28 264.767 28.28H273.377C273.563 28.28 273.657 28.3733 273.657 28.56L273.797 76.65C273.797 76.8833 273.703 77 273.517 77H265.607C265.42 77 265.327 76.8833 265.327 76.65L265.257 40.95L257.907 51.59L250.627 40.95L250.557 76.65C250.557 76.8833 250.463 77 250.277 77H242.367ZM286.264 77C286.078 77 285.984 76.8833 285.984 76.65L286.054 28.56C286.054 28.3733 286.148 28.28 286.334 28.28H308.804C308.991 28.28 309.084 28.3967 309.084 28.63V36.47C309.084 36.6567 308.991 36.75 308.804 36.75H294.454V47.67H308.804C308.991 47.67 309.084 47.7633 309.084 47.95L309.154 55.86C309.154 56.0467 309.061 56.14 308.874 56.14H294.454V68.39H308.874C309.061 68.39 309.154 68.5067 309.154 68.74V76.72C309.154 76.9067 309.061 77 308.874 77H286.264ZM333.169 77.7C330.649 77.7 328.339 77.07 326.239 75.81C324.185 74.5033 322.529 72.8 321.269 70.7C320.055 68.5533 319.449 66.1967 319.449 63.63V60.41C319.449 60.1767 319.565 60.06 319.799 60.06H327.639C327.825 60.06 327.919 60.1767 327.919 60.41V63.63C327.919 65.17 328.432 66.5 329.459 67.62C330.485 68.6933 331.722 69.23 333.169 69.23C334.615 69.23 335.852 68.67 336.879 67.55C337.905 66.43 338.419 65.1233 338.419 63.63C338.419 61.9033 337.299 60.41 335.059 59.15C334.312 58.73 333.145 58.0767 331.559 57.19C329.972 56.3033 328.479 55.4633 327.079 54.67C324.512 53.1767 322.599 51.31 321.339 49.07C320.125 46.7833 319.519 44.2167 319.519 41.37C319.519 38.7567 320.149 36.4233 321.409 34.37C322.669 32.27 324.325 30.6133 326.379 29.4C328.479 28.1867 330.742 27.58 333.169 27.58C335.642 27.58 337.905 28.21 339.959 29.47C342.059 30.6833 343.715 32.34 344.929 34.44C346.189 36.4933 346.819 38.8033 346.819 41.37V47.11C346.819 47.2967 346.725 47.39 346.539 47.39H338.699C338.512 47.39 338.419 47.2967 338.419 47.11L338.349 41.37C338.349 39.7367 337.835 38.4067 336.809 37.38C335.782 36.3533 334.569 35.84 333.169 35.84C331.722 35.84 330.485 36.4 329.459 37.52C328.432 38.5933 327.919 39.8767 327.919 41.37C327.919 42.91 328.245 44.1933 328.899 45.22C329.552 46.2467 330.742 47.2267 332.469 48.16C332.702 48.3 333.145 48.5567 333.799 48.93C334.499 49.2567 335.245 49.6533 336.039 50.12C336.832 50.54 337.532 50.9133 338.139 51.24C338.792 51.5667 339.189 51.7767 339.329 51.87C341.662 53.1767 343.505 54.7867 344.859 56.7C346.212 58.5667 346.889 60.8767 346.889 63.63C346.889 66.29 346.259 68.6933 344.999 70.84C343.785 72.94 342.129 74.62 340.029 75.88C337.975 77.0933 335.689 77.7 333.169 77.7Z" fill="#462C78"/>
</svg>
