<svg width="151" height="151" viewBox="0 0 151 151" fill="none" xmlns="http://www.w3.org/2000/svg">
<path d="M150.578 75.5C150.578 116.974 116.962 150.578 75.5 150.578C34.0384 150.578 0.421875 116.974 0.421875 75.5C0.421875 34.0505 34.0384 0.421875 75.5 0.421875C116.962 0.421875 150.578 34.0505 150.578 75.5ZM75.5 90.6367C67.809 90.6367 61.5742 96.8715 61.5742 104.562C61.5742 112.253 67.809 118.488 75.5 118.488C83.191 118.488 89.4258 112.253 89.4258 104.562C89.4258 96.8715 83.191 90.6367 75.5 90.6367ZM62.2787 40.5808L64.5244 81.7527C64.6294 83.6793 66.2224 85.1875 68.1517 85.1875H82.8483C84.7776 85.1875 86.3706 83.6793 86.4756 81.7527L88.7213 40.5808C88.8348 38.4998 87.178 36.75 85.094 36.75H65.9057C63.8217 36.75 62.1652 38.4998 62.2787 40.5808Z" fill="#ED2860"/>
</svg>
