<svg width="34" height="19" viewBox="0 0 34 19" fill="none" xmlns="http://www.w3.org/2000/svg">
<path d="M2.55072 0.224781C3.24229 0.684721 3.80497 1.32037 4.38486 1.91223C4.52157 2.05061 4.65835 2.18893 4.7952 2.32718C5.165 2.70118 5.53385 3.07613 5.90253 3.45126C6.28854 3.8437 6.67543 4.23525 7.06223 4.6269C7.79388 5.36799 8.52474 6.10988 9.25533 6.85205C10.0874 7.69724 10.9203 8.54154 11.7533 9.38577C13.4663 11.1218 15.1781 12.859 16.8892 14.5968C17.2967 14.4307 17.5694 14.1443 17.8721 13.8334C17.9286 13.7761 17.9852 13.7188 18.0435 13.6599C18.2329 13.4678 18.4217 13.275 18.6104 13.0822C18.7461 12.9444 18.8818 12.8067 19.0176 12.6689C19.3099 12.3722 19.6019 12.0752 19.8937 11.7779C20.3551 11.3078 20.8173 10.8386 21.2797 10.3695C22.4282 9.20421 23.5757 8.03793 24.7228 6.87113C25.614 5.96455 26.5055 5.05831 27.3982 4.15315C27.8578 3.68695 28.3168 3.22003 28.7752 2.75257C29.0607 2.4618 29.3468 2.17168 29.6331 1.88174C29.7657 1.74723 29.898 1.61244 30.03 1.47737C30.2104 1.29288 30.3917 1.10937 30.5732 0.926083C30.6511 0.845763 30.6511 0.845763 30.7305 0.763821C31.159 0.334606 31.617 0.00116624 32.2372 0C32.7386 0.0205251 33.1335 0.153629 33.5344 0.461226C33.949 0.974965 33.9925 1.39315 34 2.04669C33.8743 2.70406 33.3488 3.17364 32.8955 3.62912C32.8318 3.69402 32.768 3.75892 32.7023 3.82579C32.4895 4.04219 32.2759 4.25785 32.0623 4.47351C31.9091 4.62887 31.756 4.78428 31.603 4.93972C31.1878 5.36109 30.772 5.78179 30.356 6.20233C30.0088 6.55346 29.6619 6.90489 29.315 7.25632C28.4968 8.08512 27.6781 8.91336 26.859 9.74127C26.0137 10.5958 25.1693 11.4512 24.3254 12.3071C23.6008 13.0419 22.8757 13.7761 22.15 14.5098C21.7166 14.9481 21.2834 15.3865 20.8508 15.8256C20.4442 16.2382 20.0369 16.65 19.629 17.0613C19.4794 17.2124 19.33 17.3638 19.1808 17.5156C18.9775 17.7224 18.7732 17.9282 18.5686 18.1338C18.5096 18.1942 18.4506 18.2547 18.3899 18.3169C17.8801 18.8257 17.5161 18.9807 16.8029 19C16.1554 18.8898 15.7361 18.464 15.2949 18.012C15.2304 17.9471 15.1658 17.8822 15.0992 17.8153C14.8836 17.5982 14.6692 17.38 14.4547 17.1618C14.3001 17.0057 14.1455 16.8497 13.9908 16.6937C13.5712 16.2703 13.1527 15.8459 12.7343 15.4213C12.2965 14.9772 11.8579 14.534 11.4194 14.0906C10.6833 13.3461 9.94786 12.601 9.21276 11.8554C8.36245 10.9931 7.51124 10.1316 6.65951 9.27069C5.8405 8.44279 5.02208 7.6143 4.20394 6.78551C3.85556 6.43262 3.507 6.07993 3.15828 5.72738C2.74793 5.31248 2.3381 4.89707 1.92867 4.48124C1.77816 4.32855 1.62748 4.17603 1.4766 4.0237C1.27106 3.81611 1.06615 3.60789 0.8614 3.39949C0.801251 3.33904 0.741103 3.27858 0.679132 3.2163C0.218641 2.74538 0.00927383 2.4432 0 1.77994C0.0135689 1.20802 0.0902064 0.906488 0.449523 0.461226C1.097 -0.0355489 1.82203 -0.14382 2.55072 0.224781Z" fill="#2A2637"/>
</svg>
