<svg width="108" height="135" viewBox="0 0 108 135" fill="none" xmlns="http://www.w3.org/2000/svg">
<path d="M76.0328 8.10633C80.4017 11.8986 83.6593 16.5077 85.7186 21.9188C85.8073 22.1471 85.896 22.3754 85.9874 22.6107C87.5262 26.8552 87.8243 31.0694 87.7452 35.5369C87.7405 36.0145 87.7362 36.4921 87.7323 36.9698C87.7221 38.1191 87.7059 39.2682 87.6862 40.4174C87.9538 40.4323 88.2214 40.4473 88.4971 40.4627C94.3644 40.8425 99.0105 43.0734 103.113 47.3445C107.145 52.1948 107.979 57.4947 107.962 63.5809C107.964 64.1632 107.966 64.7455 107.969 65.3278C107.974 66.8996 107.974 68.4714 107.972 70.0432C107.971 71.36 107.973 72.6768 107.975 73.9935C107.979 77.1027 107.979 80.2117 107.975 83.3209C107.972 86.5178 107.976 89.7146 107.985 92.9115C107.992 95.6659 107.994 98.4203 107.992 101.175C107.991 102.816 107.992 104.456 107.997 106.097C108.002 107.641 108.001 109.186 107.995 110.73C107.994 111.293 107.994 111.856 107.998 112.419C108.033 118.835 106.588 124.35 102.022 129.112C96.3198 134.314 90.1105 134.974 82.7206 134.965C82.0262 134.966 81.3319 134.968 80.6376 134.97C78.759 134.974 76.8804 134.974 75.0019 134.973C73.4302 134.973 71.8585 134.974 70.2868 134.976C66.3652 134.98 62.4436 134.979 58.522 134.977C55.1253 134.976 51.7287 134.979 48.3321 134.985C44.8349 134.991 41.3377 134.994 37.8405 134.993C35.8809 134.992 33.9213 134.993 31.9617 134.997C30.118 135.001 28.2743 135.001 26.4305 134.997C25.7566 134.996 25.0828 134.997 24.4089 134.999C17.0922 135.026 11.2828 133.898 5.68306 128.819C4.22568 127.334 3.19357 125.736 2.25074 123.897C2.14938 123.701 2.04802 123.505 1.9436 123.302C0.132397 119.542 0.0263665 115.796 0.0378176 111.715C0.0360191 111.132 0.0338255 110.55 0.03127 109.968C0.0256505 108.396 0.0259862 106.824 0.0277872 105.252C0.0287645 103.936 0.0268399 102.619 0.0249433 101.302C0.0205304 98.1929 0.0210054 95.0838 0.0245975 91.9747C0.0282096 88.7778 0.0237804 85.581 0.0153405 82.384C0.00834362 79.6296 0.00628165 76.8753 0.0081251 74.1208C0.00918141 72.48 0.00845599 70.8393 0.00300901 69.1984C-0.00189431 67.6542 -0.000578121 66.11 0.00531005 64.5658C0.00646142 64.0026 0.00551799 63.4395 0.00219716 62.8763C-0.0316795 56.6511 1.2559 51.1758 5.66438 46.4795C9.76907 42.3681 14.6071 40.7454 20.3138 40.4174C20.3088 40.129 20.3039 39.8406 20.2988 39.5435C20.2825 38.4472 20.2707 37.3511 20.2619 36.2547C20.2572 35.7852 20.2508 35.3156 20.2425 34.8461C20.1659 30.3952 20.6324 26.1672 22.2421 21.9778C22.3365 21.7287 22.431 21.4797 22.5283 21.2231C25.9135 12.645 32.7951 6.131 41.1807 2.47558C52.8505 -2.3632 66.4499 0.0890867 76.0328 8.10633ZM38.1801 21.4071C33.7821 27.1995 33.8512 33.3136 33.8512 40.4174C47.1494 40.4174 60.4476 40.4174 74.1488 40.4174C74.1488 31.9419 73.7861 25.552 67.8523 19.3211C63.2211 15.2391 57.981 13.5403 51.8703 13.9017C46.4328 14.4161 41.7052 17.3177 38.1801 21.4071ZM43.1607 73.0863C40.9585 76.2367 40.5028 79.4747 40.7774 83.2396C41.3142 86.0369 42.6196 88.4002 44.5553 90.4816C44.8701 90.655 44.8701 90.655 45.1913 90.832C45.9868 91.2839 46.5011 91.6516 47.0739 92.3708C47.4152 93.9823 47.371 95.575 47.3297 97.2119C47.1208 101.614 47.1208 101.614 49.012 105.437C49.2555 105.638 49.499 105.84 49.7499 106.048C49.9934 106.255 50.2369 106.463 50.4877 106.676C52.0775 107.832 54.0083 107.656 55.8889 107.485C57.6437 106.951 59.0115 105.541 59.9817 104.021C60.5543 102.589 60.6775 101.415 60.6531 99.8785C60.6534 99.4484 60.6542 99.0183 60.6556 98.5883C60.655 97.9185 60.6506 97.2495 60.6362 96.5799C60.5651 92.8248 60.5651 92.8248 61.4691 91.688C62.1069 91.2207 62.7466 90.8501 63.4447 90.4816C66.2616 87.5178 67.3726 83.9607 67.3001 79.9322C67.0503 76.3828 65.3594 73.2284 62.7659 70.8109C61.7895 70.0019 60.7931 69.338 59.6668 68.7556C59.3746 68.604 59.3746 68.604 59.0765 68.4493C53.2359 65.9964 47.0167 68.4853 43.1607 73.0863Z" fill="#211C33"/>
</svg>
