<svg width="47" height="47" viewBox="0 0 47 47" fill="none" xmlns="http://www.w3.org/2000/svg">
<path d="M5.21583 10.5896C5.28036 10.5892 5.34489 10.5889 5.41137 10.5886C5.62648 10.5877 5.84157 10.5882 6.05669 10.5886C6.21292 10.5883 6.36916 10.5879 6.52539 10.5874C6.9539 10.5862 7.38239 10.5863 7.8109 10.5865C8.27337 10.5865 8.73584 10.5855 9.19831 10.5846C10.1041 10.5831 11.0099 10.5826 11.9157 10.5825C12.6521 10.5824 13.3885 10.582 14.1249 10.5814C16.2135 10.5798 18.302 10.579 20.3906 10.5791C20.5032 10.5791 20.6157 10.5791 20.7317 10.5791C20.8444 10.5791 20.9571 10.5791 21.0732 10.5791C22.8995 10.5792 24.7257 10.5775 26.552 10.5749C28.4278 10.5722 30.3037 10.5709 32.1796 10.5711C33.2324 10.5711 34.2853 10.5706 35.3382 10.5687C36.2347 10.567 37.1312 10.5666 38.0277 10.5678C38.4849 10.5684 38.942 10.5684 39.3992 10.5668C39.8182 10.5654 40.2373 10.5657 40.6563 10.5673C40.8074 10.5675 40.9584 10.5672 41.1095 10.5662C42.7629 10.5556 44.1541 10.9838 45.3721 12.1494C46.4392 13.2509 46.9834 14.544 46.9819 16.0774C46.9829 16.2152 46.9829 16.2152 46.9838 16.3558C46.9855 16.6581 46.9859 16.9604 46.9861 17.2628C46.9867 17.4748 46.9873 17.6868 46.988 17.8989C46.989 18.3433 46.9894 18.7877 46.9893 19.2321C46.9893 19.7973 46.9918 20.3625 46.9949 20.9277C46.997 21.366 46.9973 21.8042 46.9972 22.2425C46.9974 22.4506 46.9982 22.6587 46.9997 22.8668C47.0175 25.7236 46.2966 28.0593 44.2984 30.1605C42.6581 31.8044 40.4203 32.7633 38.1031 32.7797C37.9868 32.7791 37.8704 32.7785 37.7505 32.778C37.6221 32.7784 37.4937 32.7789 37.3653 32.7795C37.0162 32.7808 36.6671 32.7804 36.3181 32.7797C35.9401 32.7793 35.5621 32.7805 35.1841 32.7814C34.4451 32.783 33.7061 32.7831 32.967 32.7826C32.3658 32.7822 31.7646 32.7823 31.1634 32.7828C31.0776 32.7829 30.9918 32.783 30.9034 32.783C30.729 32.7832 30.5547 32.7833 30.3803 32.7835C28.7478 32.7847 27.1152 32.7842 25.4827 32.7832C23.9921 32.7823 22.5015 32.7835 21.0109 32.7857C19.4772 32.7879 17.9435 32.7888 16.4098 32.7882C15.55 32.7879 14.6902 32.7881 13.8304 32.7897C13.0984 32.791 12.3664 32.7911 11.6344 32.7895C11.2616 32.7887 10.8888 32.7885 10.516 32.7899C7.42443 32.8008 4.91516 32.286 2.61266 30.0683C1.52766 28.9718 0.722043 27.6014 0.322228 26.1035C0.299688 26.0244 0.277148 25.9453 0.253925 25.8638C-0.0162423 24.7859 0.00573256 23.716 0.00765214 22.611C0.0072334 22.3986 0.00674708 22.1863 0.00619686 21.9739C0.00538236 21.5309 0.00559644 21.0879 0.0065114 20.6448C0.00756517 20.0798 0.0057089 19.5148 0.00303781 18.9497C0.00134975 18.5119 0.00138337 18.0741 0.0019051 17.6362C0.00191906 17.428 0.00137194 17.2197 0.000229293 17.0115C-0.00862805 15.1337 0.23429 13.6242 1.57373 12.2067C2.56927 11.2299 3.80629 10.5912 5.21583 10.5896ZM4.26176 14.8547C3.76517 15.4868 3.69824 16.0698 3.69875 16.8635C3.69844 16.9333 3.69814 17.0031 3.69782 17.075C3.69695 17.3049 3.69677 17.5347 3.69667 17.7645C3.69638 17.9258 3.69607 18.087 3.69575 18.2483C3.6952 18.5865 3.69503 18.9246 3.69508 19.2628C3.69509 19.6924 3.69385 20.122 3.69226 20.5517C3.69124 20.8851 3.69106 21.2185 3.69111 21.552C3.691 21.7101 3.6906 21.8683 3.68989 22.0265C3.68118 24.1502 3.93018 25.8921 5.43561 27.5097C6.82823 28.8379 8.47222 29.0688 10.3111 29.0664C10.4285 29.0666 10.5459 29.0668 10.6668 29.067C10.9902 29.0676 11.3137 29.0676 11.6371 29.0675C11.9869 29.0675 12.3366 29.068 12.6863 29.0684C13.3707 29.0692 14.055 29.0694 14.7394 29.0695C15.296 29.0695 15.8526 29.0697 16.4092 29.07C17.9892 29.0708 19.5692 29.0712 21.1492 29.0712C21.2343 29.0712 21.3194 29.0712 21.407 29.0712C21.4922 29.0712 21.5774 29.0712 21.6652 29.0711C23.0452 29.0711 24.4253 29.072 25.8053 29.0733C27.2243 29.0746 28.6433 29.0753 30.0623 29.0752C30.8582 29.0751 31.6541 29.0754 32.45 29.0764C33.1276 29.0772 33.8052 29.0774 34.4829 29.0768C34.8282 29.0765 35.1735 29.0765 35.5188 29.0773C35.8942 29.0782 36.2696 29.0776 36.645 29.0769C36.7526 29.0773 36.8602 29.0778 36.971 29.0783C38.8653 29.0704 40.3571 28.6383 41.7561 27.3195C43.2344 25.7585 43.3206 23.8326 43.315 21.7991C43.3151 21.6375 43.3153 21.4759 43.3155 21.3142C43.3158 20.9783 43.3154 20.6424 43.3145 20.3065C43.3135 19.8776 43.3141 19.4486 43.3152 19.0197C43.3159 18.6871 43.3156 18.3545 43.3152 18.0218C43.315 17.8637 43.3152 17.7055 43.3156 17.5473C43.3161 17.3263 43.3154 17.1054 43.3144 16.8844C43.3149 16.7882 43.3149 16.7882 43.3155 16.69C43.3097 16.0049 43.1891 15.3888 42.7409 14.8547C42.1366 14.3738 41.5956 14.29 40.8318 14.2896C40.7708 14.2894 40.7097 14.2893 40.6468 14.2891C40.4425 14.2887 40.2381 14.2889 40.0337 14.2891C39.8856 14.2889 39.7375 14.2887 39.5894 14.2885C39.1826 14.2879 38.7758 14.2879 38.369 14.288C37.9302 14.2881 37.4914 14.2876 37.0526 14.2871C36.193 14.2863 35.3334 14.2861 34.4738 14.286C33.7751 14.286 33.0765 14.2858 32.3778 14.2855C30.3974 14.2847 28.417 14.2843 26.4366 14.2843C26.2764 14.2844 26.2764 14.2844 26.113 14.2844C25.9527 14.2844 25.9527 14.2844 25.7891 14.2844C24.0561 14.2844 22.3232 14.2835 20.5902 14.2822C18.8111 14.2809 17.0321 14.2803 15.253 14.2803C14.2541 14.2804 13.2551 14.2801 12.2562 14.2791C11.4058 14.2783 10.5554 14.2781 9.70495 14.2787C9.27104 14.279 8.83714 14.279 8.40323 14.2782C8.00594 14.2775 7.60867 14.2776 7.21138 14.2784C7.06773 14.2786 6.92408 14.2784 6.78043 14.2779C5.43269 14.2521 5.43269 14.2521 4.26176 14.8547Z" fill="#2A2637"/>
<path d="M6.50134 35.8291C7.04078 36.4187 7.06483 36.9451 7.06123 37.7167C7.06231 37.8203 7.06339 37.924 7.06451 38.0309C7.06773 38.3611 7.06858 38.6912 7.06911 39.0214C7.07061 39.3513 7.07264 39.6811 7.07567 40.011C7.07746 40.2158 7.07833 40.4206 7.07814 40.6254C7.08344 41.4046 7.1339 42.0919 7.65334 42.7129C8.17931 43.1157 8.72407 43.185 9.36833 43.1855C9.52252 43.186 9.52252 43.186 9.67983 43.1864C9.84784 43.1862 9.84784 43.1862 10.0192 43.186C10.139 43.1862 10.2587 43.1864 10.382 43.1866C10.7137 43.1872 11.0454 43.1872 11.3771 43.1871C11.7351 43.187 12.093 43.1875 12.451 43.188C13.1521 43.1887 13.8532 43.189 14.5543 43.1891C15.1241 43.1891 15.694 43.1893 16.2639 43.1896C17.8798 43.1904 19.4956 43.1908 21.1115 43.1907C21.2422 43.1907 21.2422 43.1907 21.3754 43.1907C21.5062 43.1907 21.5062 43.1907 21.6397 43.1907C23.0531 43.1907 24.4666 43.1916 25.8801 43.1929C27.3316 43.1942 28.7831 43.1948 30.2346 43.1947C31.0494 43.1947 31.8643 43.195 32.6791 43.196C33.3728 43.1968 34.0665 43.197 34.7602 43.1964C35.1141 43.1961 35.4679 43.1961 35.8218 43.1969C36.2056 43.1977 36.5893 43.1972 36.9731 43.1964C37.0847 43.1969 37.1963 43.1974 37.3113 43.1979C38.1112 43.1946 38.8151 43.1609 39.4539 42.6208C39.976 41.9315 39.9234 41.1739 39.9218 40.35C39.9231 40.1372 39.9244 39.9244 39.926 39.7116C39.928 39.378 39.9294 39.0444 39.9282 38.7108C39.9274 38.3875 39.9301 38.0644 39.9333 37.7411C39.9322 37.6423 39.931 37.5435 39.9299 37.4418C39.9407 36.7601 40.0955 36.3126 40.5537 35.8021C40.9539 35.4624 41.4122 35.3335 41.9283 35.3414C42.4579 35.3985 42.9307 35.5969 43.303 35.9864C43.7608 36.5939 43.7229 37.1805 43.7183 37.9222C43.7185 38.0485 43.7189 38.1749 43.7193 38.3013C43.7199 38.5657 43.7191 38.8301 43.7174 39.0945C43.7153 39.43 43.7165 39.7654 43.7187 40.1009C43.72 40.3619 43.7196 40.623 43.7186 40.884C43.7183 41.0668 43.7194 41.2495 43.7205 41.4323C43.7051 42.9541 43.1865 44.2557 42.1428 45.3592C40.9221 46.5558 39.5811 46.9802 37.909 46.9762C37.7799 46.9765 37.6509 46.977 37.5218 46.9775C37.1684 46.9786 36.815 46.9786 36.4616 46.9784C36.08 46.9783 35.6983 46.9793 35.3167 46.9802C34.5694 46.9817 33.8221 46.9822 33.0748 46.9823C32.4672 46.9824 31.8595 46.9828 31.2519 46.9834C29.5278 46.985 27.8038 46.9859 26.0797 46.9857C25.9404 46.9857 25.9404 46.9857 25.7982 46.9857C25.7052 46.9857 25.6122 46.9857 25.5164 46.9857C24.0096 46.9856 22.5029 46.9874 20.9961 46.99C19.4477 46.9926 17.8994 46.9939 16.351 46.9937C15.4822 46.9937 14.6135 46.9942 13.7447 46.9962C13.0049 46.9978 12.2651 46.9982 11.5253 46.997C11.1481 46.9964 10.771 46.9964 10.3939 46.998C10.048 46.9994 9.70208 46.9992 9.35614 46.9976C9.1732 46.9971 8.99026 46.9985 8.80732 47C7.3066 46.9885 6.01635 46.4553 4.92978 45.4164C3.72901 44.1781 3.31977 42.8179 3.30882 41.1238C3.3083 41.0615 3.30779 40.9992 3.30725 40.9349C3.30452 40.6054 3.30282 40.2758 3.30202 39.9463C3.30101 39.6081 3.2966 39.2701 3.29139 38.932C3.28796 38.6698 3.28703 38.4076 3.28675 38.1454C3.28593 37.9607 3.28252 37.7761 3.27905 37.5916C3.28262 36.8536 3.37803 36.3472 3.89592 35.8021C4.69284 35.1578 5.69783 35.2547 6.50134 35.8291Z" fill="#2A2637"/>
<path d="M19.718 0.017761C19.8532 0.016856 19.8532 0.016856 19.9911 0.0159328C20.2874 0.0142345 20.5837 0.0138759 20.8799 0.0136824C21.0874 0.0131046 21.2948 0.0125002 21.5022 0.0118707C21.9366 0.0107969 22.371 0.0104621 22.8053 0.0105687C23.3593 0.0105869 23.9133 0.00813689 24.4672 0.00504105C24.8957 0.00303412 25.3241 0.00267973 25.7525 0.00277445C25.9566 0.0025638 26.1607 0.00177673 26.3648 0.000379543C28.234 -0.0112171 29.7368 0.237181 31.1468 1.5402C32.2531 2.64278 32.788 3.93604 32.7907 5.46231C32.7769 5.96778 32.6972 6.32732 32.3509 6.72284C31.7858 7.23758 31.3382 7.29816 30.5677 7.27507C29.9397 7.18463 29.5779 6.88702 29.1914 6.41515C29.0376 6.11483 29.0044 5.81398 28.9604 5.48332C28.8793 4.89253 28.7372 4.43714 28.2455 4.05539C27.689 3.71797 27.1051 3.71286 26.4685 3.71325C26.3975 3.71295 26.3265 3.71265 26.2533 3.71234C26.0199 3.71149 25.7864 3.71131 25.5529 3.71121C25.3897 3.71092 25.2265 3.71062 25.0632 3.7103C24.7216 3.70977 24.3799 3.7096 24.0382 3.70965C23.6017 3.70966 23.1651 3.70844 22.7286 3.70689C22.3916 3.70589 22.0546 3.70571 21.7176 3.70576C21.5567 3.70565 21.3959 3.70526 21.235 3.70456C21.0094 3.70367 20.7839 3.70394 20.5583 3.70448C20.4927 3.70397 20.4271 3.70347 20.3595 3.70295C19.668 3.70712 19.0509 3.82358 18.5104 4.26519C18.1951 4.66521 18.1209 4.96779 18.0598 5.46648C17.9613 6.18981 17.6913 6.62916 17.124 7.1C16.6096 7.33882 16.0109 7.30839 15.4604 7.22911C14.9308 7.02342 14.6044 6.72914 14.3318 6.23879C14.2024 5.92457 14.2041 5.62149 14.2126 5.28684C14.2137 5.21604 14.2148 5.14523 14.216 5.07228C14.2662 3.61611 14.9563 2.39406 16.0149 1.39109C17.0524 0.455351 18.3203 0.0164001 19.718 0.017761Z" fill="#2A2637"/>
<path d="M24.3691 18.0336C24.8207 18.3116 25.1601 18.6366 25.3316 19.1488C25.3762 19.5855 25.3671 20.0171 25.3551 20.4555C25.3534 20.5733 25.3518 20.6911 25.35 20.8124C25.3456 21.1018 25.3394 21.391 25.3316 21.6802C25.4041 21.6773 25.4766 21.6743 25.5513 21.6713C25.8836 21.6595 26.2159 21.6523 26.5484 21.6451C26.6624 21.6403 26.7764 21.6356 26.8939 21.6308C27.6583 21.6184 28.1476 21.7183 28.7174 22.2428C29.1486 22.746 29.1619 23.2358 29.1417 23.8879C29.0695 24.3736 28.8887 24.7203 28.5293 25.0555C27.9419 25.4807 27.4381 25.4881 26.7255 25.4869C26.6157 25.4877 26.5059 25.4885 26.3928 25.4894C26.1612 25.4904 25.9296 25.4905 25.698 25.4897C25.3451 25.4891 24.9926 25.4935 24.6399 25.4983C24.4142 25.4987 24.1885 25.4988 23.9628 25.4986C23.8058 25.5012 23.8058 25.5012 23.6456 25.5039C22.937 25.4956 22.4675 25.359 21.9459 24.868C21.4695 24.3571 21.512 23.7323 21.5131 23.0697C21.5123 22.9603 21.5115 22.8508 21.5107 22.7381C21.5096 22.5072 21.5095 22.2763 21.5103 22.0454C21.5109 21.6937 21.5065 21.3423 21.5017 20.9906C21.5013 20.7656 21.5012 20.5406 21.5013 20.3156C21.4996 20.2113 21.4979 20.1069 21.4961 19.9995C21.5045 19.2902 21.6588 18.839 22.134 18.3049C22.7427 17.7866 23.6308 17.7394 24.3691 18.0336Z" fill="#2A2637"/>
</svg>
